<svg width="154" height="125" viewBox="0 0 154 125" fill="none" xmlns="http://www.w3.org/2000/svg">
<g filter="url(#filter0_i)">
<path d="M-2.28882e-05 60.75C-2.28882e-05 62.0625 0.0702896 63.1406 0.210915 63.9844C0.304665 64.8281 0.44529 65.5078 0.63279 66.0234C0.82029 66.5391 1.0781 66.9141 1.40623 67.1484C1.73435 67.3828 2.10935 67.5234 2.53123 67.5703C4.31248 67.8047 5.83591 68.5078 7.10154 69.6797C8.36716 70.8047 9.42185 72.2344 10.2656 73.9688C11.0625 75.6562 11.6719 77.5547 12.0937 79.6641C12.4687 81.7734 12.6562 84.3984 12.6562 87.5391V96.6094C12.6562 101.953 12.9609 106.289 13.5703 109.617C14.1328 112.992 15.164 115.805 16.664 118.055C18.1172 120.305 20.0625 122.016 22.5 123.188C24.9375 124.359 27.9844 124.945 31.6406 124.945C32.8125 124.945 33.8906 124.875 34.875 124.734C35.8594 124.641 36.9375 124.477 38.1094 124.242C38.4844 124.148 38.8359 123.984 39.164 123.75C39.4453 123.516 39.7031 123.164 39.9375 122.695C40.1719 122.227 40.3594 121.594 40.5 120.797C40.6406 120.047 40.7109 119.062 40.7109 117.844C40.7109 116.625 40.6406 115.617 40.5 114.82C40.3594 114.023 40.1719 113.367 39.9375 112.852C39.6562 112.336 39.3515 111.961 39.0234 111.727C38.6484 111.539 38.2734 111.422 37.8984 111.375H35.2265C34.0547 111.328 33.0937 111.094 32.3437 110.672C31.5469 110.297 30.914 109.594 30.4453 108.562C29.9297 107.578 29.5781 106.219 29.3906 104.484C29.1562 102.75 29.039 100.102 29.039 96.5391V87.75C29.039 84.1875 28.7812 81.0234 28.2656 78.2578C27.75 75.4922 26.9297 72.9375 25.8047 70.5938C24.6797 68.2031 23.2031 66.1406 21.375 64.4062C19.5 62.625 17.2265 61.4297 14.5547 60.8203C17.2265 60.2109 19.5 59.3672 21.375 58.2891C23.2031 57.2109 24.6797 55.875 25.8047 54.2812C26.9297 52.6875 27.75 50.8359 28.2656 48.7266C28.7812 46.6172 29.039 43.7578 29.039 40.1484V28.4062C29.039 24.8438 29.1562 22.2188 29.3906 20.5312C29.5781 18.7969 29.8828 17.4141 30.3047 16.3828C30.7265 15.3516 31.289 14.6484 31.9922 14.2734C32.6953 13.8516 33.5625 13.6172 34.5937 13.5703L37.125 13.5C37.8281 13.5 38.414 13.4062 38.8828 13.2188C39.3515 12.9844 39.7265 12.6328 40.0078 12.1641C40.289 11.6953 40.4765 11.0625 40.5703 10.2656C40.664 9.42188 40.7109 8.36719 40.7109 7.10156C40.7109 5.92969 40.664 4.94531 40.5703 4.14844C40.4297 3.30469 40.2422 2.64844 40.0078 2.17969C39.7265 1.71094 39.4219 1.35938 39.0937 1.125C38.7656 0.890625 38.3906 0.75 37.9687 0.703125C36.8906 0.421875 35.8594 0.234375 34.875 0.140625C33.8906 0.046875 32.8125 0 31.6406 0C27.9375 0 24.8672 0.585938 22.4297 1.75781C19.9922 2.88281 18.0469 4.57031 16.5937 6.82031C15.1406 9.07031 14.1328 11.8828 13.5703 15.2578C12.9609 18.5859 12.6562 22.9453 12.6562 28.3359V40.4297C12.6562 43.3359 12.4687 45.5156 12.0937 46.9688C11.7187 48.375 11.1562 49.5469 10.4062 50.4844C9.60935 51.4219 8.5781 52.1719 7.31248 52.7344C6.04685 53.2969 4.52341 53.7422 2.74216 54.0703C2.32029 54.1172 1.94529 54.2812 1.61716 54.5625C1.24216 54.7969 0.960915 55.1719 0.773415 55.6875C0.53904 56.2031 0.35154 56.8828 0.210915 57.7266C0.0702896 58.5234 -2.28882e-05 59.5312 -2.28882e-05 60.75Z" fill="#00FFFF"/>
<g filter="url(#filter1_i)">
<path fill-rule="evenodd" clip-rule="evenodd" d="M12.6538 86.9236L28.4583 79.3868C28.8455 81.8754 29.039 84.6631 29.039 87.75V96.5391C29.039 100.102 29.1562 102.75 29.3906 104.484C29.5781 106.219 29.9297 107.578 30.4453 108.562C30.914 109.594 31.5469 110.297 32.3437 110.672C33.0937 111.094 34.0547 111.328 35.2265 111.375H37.8984C38.2734 111.422 38.6484 111.539 39.0234 111.727C39.3515 111.961 39.6562 112.336 39.9375 112.852C40.1719 113.367 40.3594 114.023 40.5 114.82C40.6406 115.617 40.7109 116.625 40.7109 117.844C40.7109 119.062 40.6406 120.047 40.5 120.797C40.3594 121.594 40.1719 122.227 39.9375 122.695C39.7031 123.164 39.4453 123.516 39.164 123.75C38.8359 123.984 38.4844 124.148 38.1094 124.242C36.9375 124.477 35.8594 124.641 34.875 124.734C33.8906 124.875 32.8125 124.945 31.6406 124.945C27.9844 124.945 24.9375 124.359 22.5 123.188C20.0625 122.016 18.1172 120.305 16.664 118.055C15.164 115.805 14.1328 112.992 13.5703 109.617C12.9609 106.289 12.6562 101.953 12.6562 96.6094V87.5391C12.6562 87.3317 12.6554 87.1265 12.6538 86.9236ZM0.133678 58.2402L28.8853 44.5292C28.9878 43.2181 29.039 41.7578 29.039 40.1484V28.4062C29.039 24.8438 29.1562 22.2188 29.3906 20.5312C29.5781 18.7969 29.8828 17.4141 30.3047 16.3828C30.7265 15.3516 31.289 14.6484 31.9922 14.2734C32.6953 13.8516 33.5625 13.6172 34.5937 13.5703L37.125 13.5C37.8281 13.5 38.414 13.4062 38.8828 13.2188C39.3515 12.9844 39.7265 12.6328 40.0078 12.1641C40.289 11.6953 40.4765 11.0625 40.5703 10.2656C40.664 9.42188 40.7109 8.36719 40.7109 7.10156C40.7109 5.92969 40.664 4.94531 40.5703 4.14844C40.4297 3.30469 40.2422 2.64844 40.0078 2.17969C39.7265 1.71094 39.4219 1.35938 39.0937 1.125C38.7656 0.890625 38.3906 0.75 37.9687 0.703125C36.8906 0.421875 35.8594 0.234375 34.875 0.140625C33.8906 0.046875 32.8125 0 31.6406 0C27.9375 0 24.8672 0.585938 22.4297 1.75781C19.9922 2.88281 18.0469 4.57031 16.5937 6.82031C15.1406 9.07031 14.1328 11.8828 13.5703 15.2578C12.9609 18.5859 12.6562 22.9453 12.6562 28.3359V40.4297C12.6562 43.3359 12.4687 45.5156 12.0937 46.9688C11.7187 48.375 11.1562 49.5469 10.4062 50.4844C9.60935 51.4219 8.5781 52.1719 7.31248 52.7344C6.04685 53.2969 4.52341 53.7422 2.74216 54.0703C2.32029 54.1172 1.94529 54.2812 1.61716 54.5625C1.24216 54.7969 0.960915 55.1719 0.773415 55.6875C0.53904 56.2031 0.35154 56.8828 0.210915 57.7266C0.182247 57.889 0.156502 58.0602 0.133678 58.2402Z" fill="#00FFFF"/>
</g>
<g filter="url(#filter2_i)">
<path fill-rule="evenodd" clip-rule="evenodd" d="M28.8852 44.5292L0.133653 58.2402C0.156476 58.0602 0.182223 57.889 0.210891 57.7266C0.351516 56.8828 0.539016 56.2031 0.773391 55.6875C0.960891 55.1719 1.24214 54.7969 1.61714 54.5625C1.94527 54.2812 2.32027 54.1172 2.74214 54.0703C4.52339 53.7422 6.04683 53.2969 7.31245 52.7344C8.57808 52.1719 9.60933 51.4219 10.4062 50.4844C11.1562 49.5469 11.7187 48.375 12.0937 46.9687C12.4687 45.5156 12.6562 43.3359 12.6562 40.4297V31.8026L12.6562 31.8026L29.0306 41.2563C29.0121 42.4347 28.9637 43.5256 28.8852 44.5292Z" fill="#6AFFFF"/>
</g>
<g filter="url(#filter3_i)">
<path fill-rule="evenodd" clip-rule="evenodd" d="M0.210938 63.9844C0.0703126 63.1406 1.02299e-07 62.0625 1.02299e-07 60.75C1.02299e-07 59.7797 0.0445691 58.9431 0.133703 58.2402L28.8853 44.5292C28.7579 46.1586 28.5513 47.5577 28.2656 48.7266C27.75 50.8359 26.9297 52.6875 25.8047 54.2813C24.6797 55.875 23.2031 57.2109 21.375 58.2891C19.5 59.3672 17.2266 60.2109 14.5547 60.8203C17.2266 61.4297 19.5 62.625 21.375 64.4063C23.2031 66.1406 24.6797 68.2031 25.8047 70.5938C26.9297 72.9375 27.75 75.4922 28.2656 78.2578C28.3429 78.6725 28.4145 79.0962 28.4802 79.5289L12.6549 87.0756C12.6372 84.1393 12.4502 81.6688 12.0938 79.6641C11.6719 77.5547 11.0625 75.6563 10.2656 73.9688C9.42188 72.2344 8.36719 70.8047 7.10156 69.6797C5.83594 68.5078 4.3125 67.8047 2.53125 67.5703C2.10938 67.5234 1.73438 67.3828 1.40625 67.1484C1.07813 66.9141 0.820313 66.5391 0.632813 66.0234C0.445313 65.5078 0.304688 64.8281 0.210938 63.9844Z" fill="#00FFFF" fill-opacity="0.69"/>
</g>
<g filter="url(#filter4_i)">
<path fill-rule="evenodd" clip-rule="evenodd" d="M0.102882 63.1569C0.132505 63.4541 0.168525 63.7299 0.210941 63.9844C0.304691 64.8281 0.445316 65.5078 0.632816 66.0234C0.820316 66.5391 1.07813 66.9141 1.40625 67.1484C1.73438 67.3828 2.10938 67.5234 2.53125 67.5703C4.3125 67.8047 5.83594 68.5078 7.10157 69.6797C8.36719 70.8047 9.42188 72.2344 10.2656 73.9688C11.0625 75.6563 11.6719 77.5547 12.0938 79.6641C12.4502 81.6688 12.6372 84.1394 12.6549 87.0756L28.4802 79.5289C28.4145 79.0962 28.343 78.6725 28.2656 78.2578C28.1479 77.6262 28.0142 77.0055 27.8646 76.3959L0.102882 63.1569Z" fill="#00AFAF"/>
</g>
</g>
<g filter="url(#filter5_i)">
<path d="M153.711 60.75C153.711 62.0625 153.641 63.1406 153.5 63.9844C153.406 64.8281 153.266 65.5078 153.078 66.0234C152.891 66.5391 152.633 66.9141 152.305 67.1484C151.977 67.3828 151.602 67.5234 151.18 67.5703C149.398 67.8047 147.875 68.5078 146.609 69.6797C145.344 70.8047 144.289 72.2344 143.445 73.9688C142.648 75.6562 142.039 77.5547 141.617 79.6641C141.242 81.7734 141.055 84.3984 141.055 87.5391V96.6094C141.055 101.953 140.75 106.289 140.141 109.617C139.578 112.992 138.547 115.805 137.047 118.055C135.594 120.305 133.648 122.016 131.211 123.188C128.773 124.359 125.727 124.945 122.07 124.945C120.898 124.945 119.82 124.875 118.836 124.734C117.852 124.641 116.773 124.477 115.602 124.242C115.227 124.148 114.875 123.984 114.547 123.75C114.266 123.516 114.008 123.164 113.773 122.695C113.539 122.227 113.352 121.594 113.211 120.797C113.07 120.047 113 119.062 113 117.844C113 116.625 113.07 115.617 113.211 114.82C113.352 114.023 113.539 113.367 113.773 112.852C114.055 112.336 114.359 111.961 114.687 111.727C115.062 111.539 115.437 111.422 115.812 111.375H118.484C119.656 111.328 120.617 111.094 121.367 110.672C122.164 110.297 122.797 109.594 123.266 108.562C123.781 107.578 124.133 106.219 124.32 104.484C124.555 102.75 124.672 100.102 124.672 96.5391V87.75C124.672 84.1875 124.93 81.0234 125.445 78.2578C125.961 75.4922 126.781 72.9375 127.906 70.5938C129.031 68.2031 130.508 66.1406 132.336 64.4062C134.211 62.625 136.484 61.4297 139.156 60.8203C136.484 60.2109 134.211 59.3672 132.336 58.2891C130.508 57.2109 129.031 55.875 127.906 54.2812C126.781 52.6875 125.961 50.8359 125.445 48.7266C124.93 46.6172 124.672 43.7578 124.672 40.1484V28.4062C124.672 24.8438 124.555 22.2188 124.32 20.5312C124.133 18.7969 123.828 17.4141 123.406 16.3828C122.984 15.3516 122.422 14.6484 121.719 14.2734C121.016 13.8516 120.148 13.6172 119.117 13.5703L116.586 13.5C115.883 13.5 115.297 13.4062 114.828 13.2188C114.359 12.9844 113.984 12.6328 113.703 12.1641C113.422 11.6953 113.234 11.0625 113.141 10.2656C113.047 9.42188 113 8.36719 113 7.10156C113 5.92969 113.047 4.94531 113.141 4.14844C113.281 3.30469 113.469 2.64844 113.703 2.17969C113.984 1.71094 114.289 1.35938 114.617 1.125C114.945 0.890625 115.32 0.75 115.742 0.703125C116.82 0.421875 117.852 0.234375 118.836 0.140625C119.82 0.046875 120.898 0 122.07 0C125.773 0 128.844 0.585938 131.281 1.75781C133.719 2.88281 135.664 4.57031 137.117 6.82031C138.57 9.07031 139.578 11.8828 140.141 15.2578C140.75 18.5859 141.055 22.9453 141.055 28.3359V40.4297C141.055 43.3359 141.242 45.5156 141.617 46.9688C141.992 48.375 142.555 49.5469 143.305 50.4844C144.102 51.4219 145.133 52.1719 146.398 52.7344C147.664 53.2969 149.187 53.7422 150.969 54.0703C151.391 54.1172 151.766 54.2812 152.094 54.5625C152.469 54.7969 152.75 55.1719 152.937 55.6875C153.172 56.2031 153.359 56.8828 153.5 57.7266C153.641 58.5234 153.711 59.5312 153.711 60.75Z" fill="#00FFFF"/>
<g filter="url(#filter6_i)">
<path fill-rule="evenodd" clip-rule="evenodd" d="M141.057 86.9236L125.253 79.3868C124.865 81.8754 124.672 84.6631 124.672 87.75V96.5391C124.672 100.102 124.555 102.75 124.32 104.484C124.133 106.219 123.781 107.578 123.266 108.562C122.797 109.594 122.164 110.297 121.367 110.672C120.617 111.094 119.656 111.328 118.484 111.375H115.812C115.437 111.422 115.062 111.539 114.687 111.727C114.359 111.961 114.055 112.336 113.773 112.852C113.539 113.367 113.352 114.023 113.211 114.82C113.07 115.617 113 116.625 113 117.844C113 119.062 113.07 120.047 113.211 120.797C113.352 121.594 113.539 122.227 113.773 122.695C114.008 123.164 114.266 123.516 114.547 123.75C114.875 123.984 115.227 124.148 115.602 124.242C116.773 124.477 117.852 124.641 118.836 124.734C119.82 124.875 120.898 124.945 122.07 124.945C125.727 124.945 128.773 124.359 131.211 123.188C133.648 122.016 135.594 120.305 137.047 118.055C138.547 115.805 139.578 112.992 140.141 109.617C140.75 106.289 141.055 101.953 141.055 96.6094V87.5391C141.055 87.3317 141.055 87.1265 141.057 86.9236ZM153.577 58.2402L124.826 44.5292C124.723 43.2181 124.672 41.7578 124.672 40.1484V28.4062C124.672 24.8438 124.555 22.2188 124.32 20.5312C124.133 18.7969 123.828 17.4141 123.406 16.3828C122.984 15.3516 122.422 14.6484 121.719 14.2734C121.016 13.8516 120.148 13.6172 119.117 13.5703L116.586 13.5C115.883 13.5 115.297 13.4062 114.828 13.2188C114.359 12.9844 113.984 12.6328 113.703 12.1641C113.422 11.6953 113.234 11.0625 113.141 10.2656C113.047 9.42188 113 8.36719 113 7.10156C113 5.92969 113.047 4.94531 113.141 4.14844C113.281 3.30469 113.469 2.64844 113.703 2.17969C113.984 1.71094 114.289 1.35938 114.617 1.125C114.945 0.890625 115.32 0.75 115.742 0.703125C116.82 0.421875 117.852 0.234375 118.836 0.140625C119.82 0.046875 120.898 0 122.07 0C125.773 0 128.844 0.585938 131.281 1.75781C133.719 2.88281 135.664 4.57031 137.117 6.82031C138.57 9.07031 139.578 11.8828 140.141 15.2578C140.75 18.5859 141.055 22.9453 141.055 28.3359V40.4297C141.055 43.3359 141.242 45.5156 141.617 46.9688C141.992 48.375 142.555 49.5469 143.305 50.4844C144.102 51.4219 145.133 52.1719 146.398 52.7344C147.664 53.2969 149.187 53.7422 150.969 54.0703C151.391 54.1172 151.766 54.2812 152.094 54.5625C152.469 54.7969 152.75 55.1719 152.937 55.6875C153.172 56.2031 153.359 56.8828 153.5 57.7266C153.529 57.889 153.554 58.0602 153.577 58.2402Z" fill="#00FFFF"/>
</g>
<g filter="url(#filter7_i)">
<path fill-rule="evenodd" clip-rule="evenodd" d="M124.826 44.5292L153.577 58.2402C153.554 58.0602 153.529 57.889 153.5 57.7266C153.359 56.8828 153.172 56.2031 152.938 55.6875C152.75 55.1719 152.469 54.7969 152.094 54.5625C151.766 54.2812 151.391 54.1172 150.969 54.0703C149.188 53.7422 147.664 53.2969 146.398 52.7344C145.133 52.1719 144.102 51.4219 143.305 50.4844C142.555 49.5469 141.992 48.375 141.617 46.9687C141.242 45.5156 141.055 43.3359 141.055 40.4297V31.8026L141.055 31.8026L124.68 41.2563C124.699 42.4347 124.747 43.5256 124.826 44.5292Z" fill="#6AFFFF"/>
</g>
<g filter="url(#filter8_i)">
<path fill-rule="evenodd" clip-rule="evenodd" d="M153.5 63.9844C153.641 63.1406 153.711 62.0625 153.711 60.75C153.711 59.7797 153.666 58.9431 153.577 58.2402L124.826 44.5292C124.953 46.1586 125.16 47.5577 125.445 48.7266C125.961 50.8359 126.781 52.6875 127.906 54.2813C129.031 55.875 130.508 57.2109 132.336 58.2891C134.211 59.3672 136.484 60.2109 139.156 60.8203C136.484 61.4297 134.211 62.625 132.336 64.4063C130.508 66.1406 129.031 68.2031 127.906 70.5938C126.781 72.9375 125.961 75.4922 125.445 78.2578C125.368 78.6725 125.296 79.0962 125.231 79.5289L141.056 87.0756C141.074 84.1393 141.261 81.6688 141.617 79.6641C142.039 77.5547 142.648 75.6563 143.445 73.9688C144.289 72.2344 145.344 70.8047 146.609 69.6797C147.875 68.5078 149.398 67.8047 151.18 67.5703C151.602 67.5234 151.977 67.3828 152.305 67.1484C152.633 66.9141 152.891 66.5391 153.078 66.0234C153.266 65.5078 153.406 64.8281 153.5 63.9844Z" fill="#00FFFF" fill-opacity="0.69"/>
</g>
<g filter="url(#filter9_i)">
<path fill-rule="evenodd" clip-rule="evenodd" d="M153.608 63.1569C153.578 63.4541 153.542 63.7299 153.5 63.9844C153.406 64.8281 153.266 65.5078 153.078 66.0234C152.891 66.5391 152.633 66.9141 152.305 67.1484C151.977 67.3828 151.602 67.5234 151.18 67.5703C149.398 67.8047 147.875 68.5078 146.609 69.6797C145.344 70.8047 144.289 72.2344 143.445 73.9688C142.648 75.6563 142.039 77.5547 141.617 79.6641C141.261 81.6688 141.074 84.1394 141.056 87.0756L125.231 79.5289C125.296 79.0962 125.368 78.6725 125.445 78.2578C125.563 77.6262 125.697 77.0055 125.846 76.3959L153.608 63.1569Z" fill="#00AFAF"/>
</g>
</g>
<g filter="url(#filter10_i)">
<path fill-rule="evenodd" clip-rule="evenodd" d="M103.719 104.188C103.859 103.25 103.93 102.102 103.93 100.742C103.93 99.3828 103.859 98.2578 103.719 97.3672C103.625 96.4297 103.461 95.6797 103.227 95.1172C102.992 94.5547 102.687 94.1562 102.312 93.9219C101.984 93.6406 101.609 93.5 101.187 93.5H98.228L87.7889 107.984H101.187C101.609 107.984 101.984 107.867 102.312 107.633C102.687 107.352 102.992 106.93 103.227 106.367C103.461 105.805 103.625 105.078 103.719 104.188Z" fill="#6AFFFF"/>
</g>
<g filter="url(#filter11_i)">
<path fill-rule="evenodd" clip-rule="evenodd" d="M86.99 93.5L103.611 104.968C103.517 105.513 103.388 105.979 103.227 106.367C102.992 106.93 102.687 107.352 102.312 107.633C101.984 107.867 101.609 107.984 101.187 107.984H71.648L81.6418 93.5H86.99Z" fill="#19C9C9"/>
</g>
<g filter="url(#filter12_i)">
<path fill-rule="evenodd" clip-rule="evenodd" d="M68.4219 39.0741V47.781L50 63.7869V28.6909L68.4219 39.0741Z" fill="#19C9C9"/>
</g>
<g filter="url(#filter13_i)">
<path fill-rule="evenodd" clip-rule="evenodd" d="M68.4219 72.8596V79.0868L50 75.9999V48.0975L68.4219 72.8596ZM59.5401 107.984L50 101.488V88.4883L61.3287 107.984H59.5401Z" fill="#00AFAF"/>
</g>
<g filter="url(#filter14_i)">
<path fill-rule="evenodd" clip-rule="evenodd" d="M98.228 93.5H86.99L94.4957 98.6787L98.228 93.5ZM81.6418 93.5L71.648 107.984H55.4844C53.9375 107.984 52.625 107.539 51.5469 106.648C50.5156 105.711 50 104.211 50 102.148V101.488L59.5401 107.984H61.3287L50 88.4883V75.9999L68.4219 79.0868V93.5H81.6418ZM68.4219 72.8596V67.8359H95.914C96.3359 67.8359 96.7109 67.7188 97.039 67.4844C97.414 67.25 97.7187 66.875 97.9531 66.3594C98.1875 65.7969 98.3515 65.0703 98.4453 64.1797C98.5859 63.2891 98.6562 62.1641 98.6562 60.8047C98.6562 59.4922 98.5859 58.3906 98.4453 57.5C98.3515 56.5625 98.1875 55.8359 97.9531 55.3203C97.7187 54.7578 97.414 54.3594 97.039 54.125C96.7109 53.8438 96.3359 53.7031 95.914 53.7031H68.4219V47.781L57.0896 57.6271L68.4219 72.8596ZM68.4219 39.0741V31.4844H100.906C101.328 31.4844 101.703 31.3672 102.031 31.1328C102.359 30.8516 102.641 30.4297 102.875 29.8672C103.109 29.3047 103.273 28.5781 103.367 27.6875C103.508 26.75 103.578 25.625 103.578 24.3125C103.578 22.9062 103.508 21.7578 103.367 20.8672C103.273 19.9297 103.109 19.1797 102.875 18.6172C102.641 18.0078 102.359 17.5859 102.031 17.3516C101.703 17.1172 101.328 17 100.906 17H55.4844C53.9375 17 52.625 17.4688 51.5469 18.4062C50.5156 19.2969 50 20.7734 50 22.8359V28.6909L68.4219 39.0741Z" fill="#00FFFF"/>
</g>
<defs>
<filter id="filter0_i" x="-2.28882e-05" y="0" width="40.7109" height="128.945" filterUnits="userSpaceOnUse" color-interpolation-filters="sRGB">
<feFlood flood-opacity="0" result="BackgroundImageFix"/>
<feBlend mode="normal" in="SourceGraphic" in2="BackgroundImageFix" result="shape"/>
<feColorMatrix in="SourceAlpha" type="matrix" values="0 0 0 0 0 0 0 0 0 0 0 0 0 0 0 0 0 0 127 0" result="hardAlpha"/>
<feOffset dy="4"/>
<feGaussianBlur stdDeviation="4"/>
<feComposite in2="hardAlpha" operator="arithmetic" k2="-1" k3="1"/>
<feColorMatrix type="matrix" values="0 0 0 0 0 0 0 0 0 0 0 0 0 0 0 0 0 0 0.5 0"/>
<feBlend mode="normal" in2="shape" result="effect1_innerShadow"/>
</filter>
<filter id="filter1_i" x="0.133682" y="0" width="40.5772" height="128.945" filterUnits="userSpaceOnUse" color-interpolation-filters="sRGB">
<feFlood flood-opacity="0" result="BackgroundImageFix"/>
<feBlend mode="normal" in="SourceGraphic" in2="BackgroundImageFix" result="shape"/>
<feColorMatrix in="SourceAlpha" type="matrix" values="0 0 0 0 0 0 0 0 0 0 0 0 0 0 0 0 0 0 127 0" result="hardAlpha"/>
<feOffset dy="4"/>
<feGaussianBlur stdDeviation="4"/>
<feComposite in2="hardAlpha" operator="arithmetic" k2="-1" k3="1"/>
<feColorMatrix type="matrix" values="0 0 0 0 0 0 0 0 0 0 0 0 0 0 0 0 0 0 0.25 0"/>
<feBlend mode="normal" in2="shape" result="effect1_innerShadow"/>
</filter>
<filter id="filter2_i" x="0.133652" y="31.8026" width="28.8969" height="29.4376" filterUnits="userSpaceOnUse" color-interpolation-filters="sRGB">
<feFlood flood-opacity="0" result="BackgroundImageFix"/>
<feBlend mode="normal" in="SourceGraphic" in2="BackgroundImageFix" result="shape"/>
<feColorMatrix in="SourceAlpha" type="matrix" values="0 0 0 0 0 0 0 0 0 0 0 0 0 0 0 0 0 0 127 0" result="hardAlpha"/>
<feOffset dy="3"/>
<feGaussianBlur stdDeviation="2"/>
<feComposite in2="hardAlpha" operator="arithmetic" k2="-1" k3="1"/>
<feColorMatrix type="matrix" values="0 0 0 0 0 0 0 0 0 0 0 0 0 0 0 0 0 0 0.5 0"/>
<feBlend mode="normal" in2="shape" result="effect1_innerShadow"/>
</filter>
<filter id="filter3_i" x="0" y="44.5292" width="28.8853" height="45.5464" filterUnits="userSpaceOnUse" color-interpolation-filters="sRGB">
<feFlood flood-opacity="0" result="BackgroundImageFix"/>
<feBlend mode="normal" in="SourceGraphic" in2="BackgroundImageFix" result="shape"/>
<feColorMatrix in="SourceAlpha" type="matrix" values="0 0 0 0 0 0 0 0 0 0 0 0 0 0 0 0 0 0 127 0" result="hardAlpha"/>
<feOffset dy="3"/>
<feGaussianBlur stdDeviation="2"/>
<feComposite in2="hardAlpha" operator="arithmetic" k2="-1" k3="1"/>
<feColorMatrix type="matrix" values="0 0 0 0 0 0 0 0 0 0 0 0 0 0 0 0 0 0 0.25 0"/>
<feBlend mode="normal" in2="shape" result="effect1_innerShadow"/>
</filter>
<filter id="filter4_i" x="0.102882" y="63.1569" width="28.3773" height="26.9187" filterUnits="userSpaceOnUse" color-interpolation-filters="sRGB">
<feFlood flood-opacity="0" result="BackgroundImageFix"/>
<feBlend mode="normal" in="SourceGraphic" in2="BackgroundImageFix" result="shape"/>
<feColorMatrix in="SourceAlpha" type="matrix" values="0 0 0 0 0 0 0 0 0 0 0 0 0 0 0 0 0 0 127 0" result="hardAlpha"/>
<feOffset dy="3"/>
<feGaussianBlur stdDeviation="2"/>
<feComposite in2="hardAlpha" operator="arithmetic" k2="-1" k3="1"/>
<feColorMatrix type="matrix" values="0 0 0 0 0 0 0 0 0 0 0 0 0 0 0 0 0 0 0.25 0"/>
<feBlend mode="normal" in2="shape" result="effect1_innerShadow"/>
</filter>
<filter id="filter5_i" x="113" y="0" width="40.7109" height="128.945" filterUnits="userSpaceOnUse" color-interpolation-filters="sRGB">
<feFlood flood-opacity="0" result="BackgroundImageFix"/>
<feBlend mode="normal" in="SourceGraphic" in2="BackgroundImageFix" result="shape"/>
<feColorMatrix in="SourceAlpha" type="matrix" values="0 0 0 0 0 0 0 0 0 0 0 0 0 0 0 0 0 0 127 0" result="hardAlpha"/>
<feOffset dy="4"/>
<feGaussianBlur stdDeviation="4"/>
<feComposite in2="hardAlpha" operator="arithmetic" k2="-1" k3="1"/>
<feColorMatrix type="matrix" values="0 0 0 0 0 0 0 0 0 0 0 0 0 0 0 0 0 0 0.5 0"/>
<feBlend mode="normal" in2="shape" result="effect1_innerShadow"/>
</filter>
<filter id="filter6_i" x="113" y="0" width="40.5772" height="128.945" filterUnits="userSpaceOnUse" color-interpolation-filters="sRGB">
<feFlood flood-opacity="0" result="BackgroundImageFix"/>
<feBlend mode="normal" in="SourceGraphic" in2="BackgroundImageFix" result="shape"/>
<feColorMatrix in="SourceAlpha" type="matrix" values="0 0 0 0 0 0 0 0 0 0 0 0 0 0 0 0 0 0 127 0" result="hardAlpha"/>
<feOffset dy="4"/>
<feGaussianBlur stdDeviation="4"/>
<feComposite in2="hardAlpha" operator="arithmetic" k2="-1" k3="1"/>
<feColorMatrix type="matrix" values="0 0 0 0 0 0 0 0 0 0 0 0 0 0 0 0 0 0 0.25 0"/>
<feBlend mode="normal" in2="shape" result="effect1_innerShadow"/>
</filter>
<filter id="filter7_i" x="124.68" y="31.8026" width="28.8969" height="29.4376" filterUnits="userSpaceOnUse" color-interpolation-filters="sRGB">
<feFlood flood-opacity="0" result="BackgroundImageFix"/>
<feBlend mode="normal" in="SourceGraphic" in2="BackgroundImageFix" result="shape"/>
<feColorMatrix in="SourceAlpha" type="matrix" values="0 0 0 0 0 0 0 0 0 0 0 0 0 0 0 0 0 0 127 0" result="hardAlpha"/>
<feOffset dy="3"/>
<feGaussianBlur stdDeviation="2"/>
<feComposite in2="hardAlpha" operator="arithmetic" k2="-1" k3="1"/>
<feColorMatrix type="matrix" values="0 0 0 0 0 0 0 0 0 0 0 0 0 0 0 0 0 0 0.5 0"/>
<feBlend mode="normal" in2="shape" result="effect1_innerShadow"/>
</filter>
<filter id="filter8_i" x="124.826" y="44.5292" width="28.8853" height="45.5464" filterUnits="userSpaceOnUse" color-interpolation-filters="sRGB">
<feFlood flood-opacity="0" result="BackgroundImageFix"/>
<feBlend mode="normal" in="SourceGraphic" in2="BackgroundImageFix" result="shape"/>
<feColorMatrix in="SourceAlpha" type="matrix" values="0 0 0 0 0 0 0 0 0 0 0 0 0 0 0 0 0 0 127 0" result="hardAlpha"/>
<feOffset dy="3"/>
<feGaussianBlur stdDeviation="2"/>
<feComposite in2="hardAlpha" operator="arithmetic" k2="-1" k3="1"/>
<feColorMatrix type="matrix" values="0 0 0 0 0 0 0 0 0 0 0 0 0 0 0 0 0 0 0.25 0"/>
<feBlend mode="normal" in2="shape" result="effect1_innerShadow"/>
</filter>
<filter id="filter9_i" x="125.231" y="63.1569" width="28.3773" height="26.9187" filterUnits="userSpaceOnUse" color-interpolation-filters="sRGB">
<feFlood flood-opacity="0" result="BackgroundImageFix"/>
<feBlend mode="normal" in="SourceGraphic" in2="BackgroundImageFix" result="shape"/>
<feColorMatrix in="SourceAlpha" type="matrix" values="0 0 0 0 0 0 0 0 0 0 0 0 0 0 0 0 0 0 127 0" result="hardAlpha"/>
<feOffset dy="3"/>
<feGaussianBlur stdDeviation="2"/>
<feComposite in2="hardAlpha" operator="arithmetic" k2="-1" k3="1"/>
<feColorMatrix type="matrix" values="0 0 0 0 0 0 0 0 0 0 0 0 0 0 0 0 0 0 0.25 0"/>
<feBlend mode="normal" in2="shape" result="effect1_innerShadow"/>
</filter>
<filter id="filter10_i" x="87.7889" y="93.5" width="16.1408" height="17.4844" filterUnits="userSpaceOnUse" color-interpolation-filters="sRGB">
<feFlood flood-opacity="0" result="BackgroundImageFix"/>
<feBlend mode="normal" in="SourceGraphic" in2="BackgroundImageFix" result="shape"/>
<feColorMatrix in="SourceAlpha" type="matrix" values="0 0 0 0 0 0 0 0 0 0 0 0 0 0 0 0 0 0 127 0" result="hardAlpha"/>
<feOffset dy="3"/>
<feGaussianBlur stdDeviation="2"/>
<feComposite in2="hardAlpha" operator="arithmetic" k2="-1" k3="1"/>
<feColorMatrix type="matrix" values="0 0 0 0 0 0 0 0 0 0 0 0 0 0 0 0 0 0 0.25 0"/>
<feBlend mode="normal" in2="shape" result="effect1_innerShadow"/>
</filter>
<filter id="filter11_i" x="71.648" y="93.5" width="31.9633" height="17.4844" filterUnits="userSpaceOnUse" color-interpolation-filters="sRGB">
<feFlood flood-opacity="0" result="BackgroundImageFix"/>
<feBlend mode="normal" in="SourceGraphic" in2="BackgroundImageFix" result="shape"/>
<feColorMatrix in="SourceAlpha" type="matrix" values="0 0 0 0 0 0 0 0 0 0 0 0 0 0 0 0 0 0 127 0" result="hardAlpha"/>
<feOffset dy="3"/>
<feGaussianBlur stdDeviation="2"/>
<feComposite in2="hardAlpha" operator="arithmetic" k2="-1" k3="1"/>
<feColorMatrix type="matrix" values="0 0 0 0 0 0 0 0 0 0 0 0 0 0 0 0 0 0 0.25 0"/>
<feBlend mode="normal" in2="shape" result="effect1_innerShadow"/>
</filter>
<filter id="filter12_i" x="50" y="28.6909" width="18.4219" height="38.096" filterUnits="userSpaceOnUse" color-interpolation-filters="sRGB">
<feFlood flood-opacity="0" result="BackgroundImageFix"/>
<feBlend mode="normal" in="SourceGraphic" in2="BackgroundImageFix" result="shape"/>
<feColorMatrix in="SourceAlpha" type="matrix" values="0 0 0 0 0 0 0 0 0 0 0 0 0 0 0 0 0 0 127 0" result="hardAlpha"/>
<feOffset dy="3"/>
<feGaussianBlur stdDeviation="2"/>
<feComposite in2="hardAlpha" operator="arithmetic" k2="-1" k3="1"/>
<feColorMatrix type="matrix" values="0 0 0 0 0 0 0 0 0 0 0 0 0 0 0 0 0 0 0.25 0"/>
<feBlend mode="normal" in2="shape" result="effect1_innerShadow"/>
</filter>
<filter id="filter13_i" x="50" y="48.0975" width="18.4219" height="62.8868" filterUnits="userSpaceOnUse" color-interpolation-filters="sRGB">
<feFlood flood-opacity="0" result="BackgroundImageFix"/>
<feBlend mode="normal" in="SourceGraphic" in2="BackgroundImageFix" result="shape"/>
<feColorMatrix in="SourceAlpha" type="matrix" values="0 0 0 0 0 0 0 0 0 0 0 0 0 0 0 0 0 0 127 0" result="hardAlpha"/>
<feOffset dy="3"/>
<feGaussianBlur stdDeviation="2"/>
<feComposite in2="hardAlpha" operator="arithmetic" k2="-1" k3="1"/>
<feColorMatrix type="matrix" values="0 0 0 0 0 0 0 0 0 0 0 0 0 0 0 0 0 0 0.25 0"/>
<feBlend mode="normal" in2="shape" result="effect1_innerShadow"/>
</filter>
<filter id="filter14_i" x="50" y="17" width="53.5781" height="93.9844" filterUnits="userSpaceOnUse" color-interpolation-filters="sRGB">
<feFlood flood-opacity="0" result="BackgroundImageFix"/>
<feBlend mode="normal" in="SourceGraphic" in2="BackgroundImageFix" result="shape"/>
<feColorMatrix in="SourceAlpha" type="matrix" values="0 0 0 0 0 0 0 0 0 0 0 0 0 0 0 0 0 0 127 0" result="hardAlpha"/>
<feOffset dy="3"/>
<feGaussianBlur stdDeviation="3.5"/>
<feComposite in2="hardAlpha" operator="arithmetic" k2="-1" k3="1"/>
<feColorMatrix type="matrix" values="0 0 0 0 0 0 0 0 0 0 0 0 0 0 0 0 0 0 0.5 0"/>
<feBlend mode="normal" in2="shape" result="effect1_innerShadow"/>
</filter>
</defs>
</svg>
