<?xml version="1.0" standalone="no"?>
<!DOCTYPE svg PUBLIC "-//W3C//DTD SVG 20010904//EN"
 "http://www.w3.org/TR/2001/REC-SVG-20010904/DTD/svg10.dtd">
<svg version="1.0" xmlns="http://www.w3.org/2000/svg"
 width="616.000000pt" height="616.000000pt" viewBox="0 0 616.000000 616.000000"
 preserveAspectRatio="xMidYMid meet">
<metadata>
Created by potrace 1.14, written by Peter Selinger 2001-2017
</metadata>
<g transform="translate(0.000000,616.000000) scale(0.100000,-0.100000)"
fill="#000000" stroke="none">
<path d="M1060 5563 c-93 -21 -105 -25 -190 -65 -156 -76 -272 -251 -319 -483
-17 -90 -22 -124 -37 -260 -3 -22 -6 -238 -8 -480 -3 -385 -7 -488 -22 -568
-8 -42 -55 -128 -90 -164 -22 -22 -65 -52 -96 -66 -50 -24 -170 -59 -205 -60
-7 0 -13 -4 -13 -8 0 -4 -8 -10 -19 -14 -37 -12 -56 -88 -57 -240 -2 -178 13
-241 66 -267 19 -9 49 -19 67 -21 52 -8 131 -57 181 -113 83 -92 126 -190 168
-379 2 -11 6 -51 9 -90 2 -38 5 -70 6 -70 0 0 2 -166 4 -370 2 -203 6 -397 9
-430 10 -108 17 -170 21 -185 3 -8 7 -31 10 -50 10 -62 47 -190 56 -196 5 -3
9 -14 9 -25 0 -10 5 -19 10 -19 6 0 10 -7 10 -16 0 -23 80 -133 129 -177 72
-65 198 -130 276 -143 17 -2 48 -8 70 -12 51 -9 266 -8 325 1 25 4 61 10 80
13 85 14 120 100 116 284 -2 90 -7 125 -23 160 -30 67 -42 74 -145 77 -142 4
-190 25 -231 101 -50 92 -57 156 -63 562 -3 179 -5 331 -5 338 6 161 -29 385
-79 517 -39 104 -126 265 -142 265 -4 0 -8 5 -8 10 0 13 -129 140 -142 140 -5
0 -16 7 -24 15 -8 8 -48 27 -89 42 -71 27 -90 39 -62 41 45 3 139 37 222 80
79 41 187 143 226 212 29 52 66 151 74 195 3 17 7 41 10 55 12 59 16 190 20
585 2 231 6 434 8 450 4 30 17 107 22 135 6 29 26 73 45 100 32 44 83 63 187
66 171 7 193 30 201 220 7 192 -20 273 -101 295 -23 6 -51 13 -62 16 -49 13
-342 10 -405 -4z"/>
<path d="M4671 5564 c-106 -23 -133 -52 -146 -154 -17 -136 -4 -280 31 -327
26 -35 52 -42 177 -48 87 -4 111 -10 148 -36 23 -16 58 -71 65 -104 33 -133
37 -202 39 -660 2 -365 6 -468 20 -544 1 -9 6 -35 10 -58 4 -24 11 -45 16 -49
5 -3 7 -9 5 -13 -3 -3 12 -39 32 -79 39 -77 111 -169 152 -195 14 -9 34 -22
45 -29 11 -7 22 -16 25 -19 9 -11 123 -58 194 -80 l68 -21 -48 -18 c-204 -72
-353 -243 -444 -510 -12 -36 -24 -74 -26 -85 -2 -11 -6 -31 -9 -45 -32 -143
-37 -229 -40 -620 -2 -305 -7 -449 -19 -515 -9 -45 -31 -115 -38 -115 -4 0 -8
-6 -8 -12 0 -22 -43 -63 -85 -81 -25 -11 -74 -19 -135 -21 -52 -2 -103 -7
-112 -11 -9 -4 -27 -28 -40 -53 -21 -43 -23 -61 -23 -192 0 -131 2 -150 23
-191 22 -46 47 -64 102 -74 14 -3 36 -8 50 -11 44 -10 284 -13 335 -3 28 5 61
11 75 14 69 12 177 59 229 100 44 34 121 113 121 124 0 6 3 11 8 11 11 0 67
106 96 182 14 38 23 68 21 68 -2 0 1 15 6 33 5 17 11 43 13 57 3 14 8 45 12
70 18 107 25 290 29 685 2 198 6 374 9 390 4 17 11 55 17 85 27 137 82 258
155 339 69 77 108 99 231 131 71 18 88 73 88 285 0 91 -4 131 -18 166 -17 44
-61 97 -75 91 -6 -3 -60 6 -82 13 -3 1 -18 5 -35 9 -65 17 -156 69 -189 108
-90 104 -99 160 -102 638 -3 375 -8 579 -18 650 -3 19 -8 55 -11 80 -3 25 -11
65 -16 90 -6 25 -12 54 -15 64 -8 43 -38 124 -62 171 -27 52 -128 185 -140
185 -4 0 -18 10 -32 23 -43 38 -183 99 -264 113 -72 13 -352 12 -415 -2z"/>
<path d="M2245 4899 c-111 -6 -124 -10 -177 -51 -32 -25 -53 -63 -65 -118 -3
-12 -4 -195 -2 -290 0 -8 -1 -42 -1 -75 -1 -33 -1 -85 -1 -115 1 -30 0 -66 -2
-80 -2 -14 0 -40 4 -58 4 -17 3 -34 -1 -37 -4 -3 -4 -21 0 -40 4 -19 5 -50 1
-67 -4 -18 -6 -44 -4 -58 1 -14 2 -54 2 -90 0 -36 0 -173 1 -305 0 -132 0
-246 0 -252 -1 -42 -1 -176 0 -218 0 -27 -1 -59 -3 -70 -2 -11 -1 -32 3 -46 4
-15 4 -32 0 -38 -4 -7 -4 -30 0 -52 4 -21 4 -39 -1 -39 -4 0 -4 -13 1 -29 4
-15 4 -34 0 -40 -4 -7 -4 -30 0 -51 4 -21 4 -44 0 -50 -4 -6 -4 -29 0 -51 4
-21 5 -39 1 -39 -6 0 -6 -102 -1 -210 1 -25 1 -49 0 -55 -1 -5 -1 -48 0 -95 2
-99 2 -107 -1 -181 -1 -31 1 -61 5 -68 4 -6 3 -11 -1 -11 -5 0 -6 -29 -3 -65
3 -36 3 -65 0 -65 -3 0 -4 -33 -2 -72 2 -67 2 -109 1 -200 -2 -143 44 -220
149 -247 23 -7 114 -12 205 -11 89 0 247 0 351 0 104 1 193 3 197 6 4 2 10 0
14 -6 4 -6 10 -8 15 -5 5 3 222 5 482 5 626 -2 657 -1 679 13 26 16 50 71 57
126 7 57 6 279 0 306 -3 11 -9 34 -13 52 -7 30 -37 72 -53 74 -4 0 -16 3 -27
5 -36 9 -535 9 -535 1 0 -5 -5 -5 -12 -1 -7 4 -182 7 -390 7 -208 0 -378 2
-379 6 -1 9 -1 994 0 1007 1 7 174 10 552 10 441 -1 558 2 585 13 19 7 31 17
28 22 -3 5 -1 9 4 9 6 0 13 17 17 38 5 20 10 44 12 52 10 41 11 204 2 270 -13
92 -34 139 -69 154 -19 8 -190 11 -579 10 -494 0 -551 1 -552 15 0 9 -1 208
-2 442 -2 372 0 426 13 427 56 4 212 2 220 -3 6 -3 10 -3 10 2 0 7 42 8 180 3
43 -1 219 -2 240 -1 47 3 205 -1 212 -5 4 -3 8 -2 8 3 0 4 57 7 127 6 338 -7
339 -7 368 62 25 60 35 240 21 356 -4 30 -7 57 -6 62 1 13 -28 62 -47 79 -18
17 -79 18 -879 20 -472 2 -904 0 -959 -3z"/>
</g>
</svg>
