<svg width="100" height="100" viewBox="0 0 100 100" fill="none" xmlns="http://www.w3.org/2000/svg">
<path d="M76.5624 45.3125C79.1468 45.3125 81.2499 43.2094 81.2499 40.625C81.2499 38.0406 79.1468 35.9375 76.5624 35.9375C73.9781 35.9375 71.875 38.0406 71.875 40.625C71.875 43.2094 73.9781 45.3125 76.5624 45.3125ZM76.5624 39.0625C77.4234 39.0625 78.1249 39.7625 78.1249 40.625C78.1249 41.4875 77.4234 42.1875 76.5624 42.1875C75.7015 42.1875 74.9999 41.4875 74.9999 40.625C74.9999 39.7625 75.7015 39.0625 76.5624 39.0625ZM50 85.9375C46.5531 85.9375 43.75 88.7406 43.75 92.1875V98.4375H96.8749V92.1875C96.8749 88.7406 94.0718 85.9375 90.6249 85.9375V76.7859C90.6249 72.1953 88.8374 67.8781 85.5906 64.6328L81.2499 60.2906V57.8188C81.9453 57.8359 82.6312 58.0672 83.189 58.4844L86.8124 61.2C87.9281 62.0375 89.3124 62.4984 90.7062 62.4984C93.1796 62.4984 95.4046 61.1234 96.5109 58.9109L98.6531 54.625L86.9218 34.6812C85.1765 31.7141 82.5453 29.4359 79.4921 28.0531L79.0781 26.1266C78.3515 22.7578 75.3218 20.3125 71.875 20.3125C70.8546 20.3125 69.8374 20.4062 68.8296 20.5484L65.825 16.3406L64.5218 17.6453C63.0203 19.1469 62.0437 20.9734 61.564 22.9062C54.4156 26.7266 50 34.0375 50 42.1875V70.3125H49.7922L43.7859 28.2687L46.4781 20.1953C50.2312 19.6266 53.125 16.4078 53.125 12.5V1.5625H40.625V7.8125H34.375V1.5625H21.875V7.8125H15.625V1.5625H3.125V12.5C3.125 16.4078 6.01875 19.6266 9.77187 20.1953L12.4641 28.2687L6.43437 70.4766C3.65156 71.1078 1.5625 73.5906 1.5625 76.5625V82.8125H50V85.9375ZM93.7499 92.1875V95.3125H46.875V92.1875C46.875 90.4641 48.2765 89.0625 50 89.0625H90.6249C92.3484 89.0625 93.7499 90.4641 93.7499 92.1875ZM84.2265 36.2672L95.0984 54.7484L93.714 57.5156C93.1406 58.6625 91.9874 59.375 90.7046 59.375C89.9827 59.375 89.2656 59.1359 88.6859 58.7016L85.0624 55.9859C83.9468 55.1484 82.564 54.6875 81.1703 54.6875H76.5624C73.1156 54.6875 70.3125 51.8844 70.3125 48.4375H67.1875C67.1875 53.6078 71.3921 57.8125 76.5624 57.8125H78.1249V61.5844L83.3812 66.8406C86.0374 69.4969 87.4999 73.0281 87.4999 76.7844V85.9375H59.375V43.0344C59.375 35.675 65.3625 29.6875 72.7218 29.6875C77.4312 29.6875 81.839 32.2078 84.2265 36.2672ZM71.875 23.4375C73.8593 23.4375 75.6031 24.8453 76.0203 26.7859L76.0531 26.9422C75.1015 26.7437 74.1312 26.6172 73.1453 26.5906L70.9249 23.4813C71.2421 23.4656 71.5578 23.4375 71.875 23.4375ZM65.5531 21.3375L69.514 26.8813C67.8828 27.2047 66.339 27.7672 64.9187 28.5344C63.9812 26.1562 64.2109 23.4984 65.5531 21.3375ZM61.2968 26.6984C61.4203 27.9266 61.75 29.1391 62.2906 30.3C58.6062 33.3234 56.25 37.9078 56.25 43.0344V85.9375H53.125V42.1875C53.125 35.8859 56.1984 30.1625 61.2968 26.6984ZM41.0609 26.5625H15.1891L13.1062 20.3125H43.1453L41.0609 26.5625ZM6.25 12.5V4.6875H12.5V10.9375H25V4.6875H31.25V10.9375H43.75V4.6875H50V12.5C50 15.0844 47.8968 17.1875 45.3125 17.1875H10.9375C8.35312 17.1875 6.25 15.0844 6.25 12.5ZM15.4172 29.6875H40.8312L46.6359 70.3125H9.61406L15.4172 29.6875ZM4.6875 79.6875V76.5625C4.6875 74.8391 6.08906 73.4375 7.8125 73.4375H50V79.6875H4.6875ZM62.5 79.6875H65.625V82.8125H62.5V79.6875ZM71.875 82.8125H68.75V79.6875H71.875V82.8125ZM78.1249 82.8125H74.9999V79.6875H78.1249V82.8125ZM18.75 67.1875H37.5C40.0843 67.1875 42.1875 65.0844 42.1875 62.5V50C42.1875 47.4156 40.0843 45.3125 37.5 45.3125H18.75C16.1656 45.3125 14.0625 47.4156 14.0625 50V62.5C14.0625 65.0844 16.1656 67.1875 18.75 67.1875ZM17.1875 50C17.1875 49.1375 17.8891 48.4375 18.75 48.4375H37.5C38.3609 48.4375 39.0625 49.1375 39.0625 50V62.5C39.0625 63.3625 38.3609 64.0625 37.5 64.0625H18.75C17.8891 64.0625 17.1875 63.3625 17.1875 62.5V50ZM20.3125 35.9375H17.1875V32.8125H20.3125V35.9375ZM26.5625 35.9375H23.4375V32.8125H26.5625V35.9375ZM32.8125 35.9375H29.6875V32.8125H32.8125V35.9375Z" fill="#00FFFF"/>
</svg>
