<svg width="100" height="100" viewBox="0 0 100 100" fill="none" xmlns="http://www.w3.org/2000/svg">
<g clip-path="url(#clip0)">
<path d="M17.216 87.8996C21.3085 89.3781 25.6292 90.1251 29.9805 90.1067C34.732 90.0904 39.4472 89.2784 43.9305 87.7043C52.9424 84.5698 60.4252 78.7368 65.0002 71.2799C69.6371 63.7227 70.7451 55.4047 68.1203 47.8582C68.0694 47.7145 68.0108 47.5737 67.9446 47.4364C68.6032 47.9026 69.3572 48.2168 70.1521 48.3562C70.9469 48.4955 71.7628 48.4566 72.5408 48.2422L97.342 36.2078C97.9024 35.9386 98.4037 35.5605 98.8166 35.0956C99.2295 34.6307 99.5458 34.0883 99.747 33.5C99.9483 32.9118 100.03 32.2893 99.9888 31.6689C99.9472 31.0486 99.7826 30.4427 99.5045 29.8866L99.1385 29.1547C98.5986 28.0704 97.6592 27.2377 96.518 26.8317C95.3768 26.4257 94.1226 26.4781 93.0192 26.9778L69.6635 37.6418C68.4998 37.9647 67.4743 38.6609 66.7446 39.6233C66.015 40.5857 65.6217 41.7611 65.625 42.9688C65.6248 43.5888 65.7305 44.2043 65.9375 44.7887L65.478 45.0951C59.3469 42.0287 44.4774 44.5008 30.5844 49.3334C29.7681 49.6173 28.9543 49.9099 28.143 50.2112C26.6076 44.5231 30.5809 40.383 30.7971 40.1637L28.5834 37.9582C27.0694 39.5956 25.9368 41.548 25.2672 43.6752C24.4766 46.1669 24.4548 48.8389 25.2045 51.3432C22.7045 52.3414 20.3022 53.3967 18.0289 54.4934C16.7682 49.8133 16.6563 44.9844 16.828 41.495C16.8616 40.7907 16.7542 40.0867 16.5121 39.4245C16.2699 38.7623 15.8978 38.1552 15.4177 37.6388C14.9376 37.1224 14.3591 36.7071 13.7163 36.4174C13.0734 36.1277 12.3792 35.9694 11.6743 35.9518C10.9694 35.9342 10.2681 36.0576 9.61156 36.3148C8.95504 36.572 8.35655 36.9579 7.85123 37.4496C7.34591 37.9414 6.94396 38.5292 6.66899 39.1784C6.39402 39.8277 6.25158 40.5254 6.25003 41.2305V52.2813C6.24956 52.5051 6.16038 52.7196 6.00204 52.8777C5.84369 53.0359 5.6291 53.1248 5.4053 53.125C4.88203 53.1248 4.36389 53.2281 3.8807 53.429C3.39751 53.6298 2.9588 53.9242 2.58983 54.2953C2.22086 54.6663 1.92891 55.1066 1.73078 55.5909C1.53266 56.0753 1.43226 56.594 1.43538 57.1172C1.50465 59.6524 1.95642 62.1626 2.77542 64.5629C0.384595 67.1225 -0.470483 69.4426 0.2344 71.4698C2.8596 79.0162 8.89046 84.8512 17.216 87.8996ZM42.9039 84.7518C34.5715 87.65 25.8305 87.726 18.2905 84.9653C12.7194 82.9254 8.30999 79.5149 5.47795 75.1342C7.11175 75.454 8.77427 75.6036 10.4389 75.5807C11.3961 75.5807 12.4182 75.5435 13.5053 75.469C18.8926 75.0994 25.3762 73.8141 32.1805 71.794C32.3172 71.8159 36.043 70.5953 37.7715 69.9942C41.7142 68.6297 45.5836 67.0619 49.3641 65.2971L49.4438 65.26C53.5315 63.3364 57.1895 61.2905 60.1973 59.2282C62.8884 57.3831 64.9155 55.6371 66.2785 53.9901C67.4541 66.468 57.9221 79.5282 42.9039 84.7518ZM59.1709 53.3065C58.8416 56.1073 58.2932 56.6842 58.2701 56.7075L58.3004 56.7377C57.0069 57.6186 55.5881 58.4971 54.0621 59.3641C55.0817 57.3459 55.7553 55.1709 56.0547 52.9297C56.1063 52.5513 56.2931 52.2043 56.5806 51.953C56.8682 51.7017 57.2371 51.563 57.619 51.5625C57.8395 51.5625 58.0576 51.6091 58.2589 51.6994C58.4602 51.7897 58.64 51.9215 58.7867 52.0863C58.9333 52.2511 59.0434 52.445 59.1097 52.6554C59.176 52.8658 59.197 53.0878 59.1713 53.3069L59.1709 53.3065ZM94.3071 29.8242C94.6746 29.6586 95.092 29.6417 95.4717 29.7773C95.8514 29.9128 96.1639 30.1902 96.3434 30.5512L96.7094 31.283C96.8024 31.469 96.8573 31.6717 96.871 31.8793C96.8847 32.0868 96.8568 32.2949 96.7889 32.4915C96.7211 32.6881 96.6147 32.8692 96.476 33.0241C96.3373 33.179 96.169 33.3047 95.9811 33.3938L76.5598 42.8545C76.544 42.0819 76.3642 41.3215 76.0325 40.6236C75.7007 39.9257 75.2245 39.3062 74.6354 38.8061L94.3071 29.8242ZM71.0938 40.625C71.5827 40.6244 72.0596 40.777 72.4574 41.0612C72.8553 41.3454 73.1541 41.7471 73.3121 42.2098C73.47 42.6725 73.4791 43.1731 73.3381 43.6412C73.1971 44.1094 72.913 44.5216 72.5258 44.8202L71.6664 45.2391C71.3885 45.3124 71.099 45.3311 70.8139 45.2942L71.1799 45.0502C71.3528 44.9374 71.5017 44.7914 71.6179 44.6207C71.734 44.45 71.8152 44.2579 71.8567 44.0556C71.8982 43.8534 71.8992 43.6449 71.8596 43.4422C71.82 43.2395 71.7407 43.0467 71.6261 42.8749C71.5116 42.7031 71.3641 42.5557 71.1923 42.4412C71.0204 42.3268 70.8276 42.2475 70.6249 42.208C70.4222 42.1685 70.2137 42.1696 70.0115 42.2112C69.8092 42.2527 69.6172 42.334 69.4465 42.4502L68.7535 42.9121C68.7687 42.3011 69.0217 41.7202 69.4588 41.293C69.896 40.8658 70.4826 40.6261 71.0938 40.625ZM28.4871 57.2504L30.8879 55.2498C30.3205 54.5739 29.8109 53.8515 29.3645 53.0903C30.11 52.8151 30.8606 52.5459 31.6106 52.2848C40.1555 49.3127 48.4856 47.4272 55.0641 46.976C58.1252 46.7662 60.7055 46.8885 62.525 47.3301C64.0057 47.6891 64.9442 48.241 65.1678 48.8842C65.3914 49.5274 64.9979 50.5424 64.06 51.7428C63.5171 52.4205 62.9209 53.0535 62.277 53.636C62.4089 52.4087 62.0521 51.1789 61.2839 50.2127C60.5157 49.2465 59.3979 48.6218 58.1725 48.4738C56.947 48.3258 55.7126 48.6664 54.7365 49.4218C53.7603 50.1773 53.121 51.2868 52.9569 52.5102C52.1631 58.3522 48.7096 61.7567 47.7463 62.6043C44.1553 64.267 40.483 65.7483 36.7434 67.0426C35.1494 67.597 33.5663 68.1128 31.9942 68.5899C25.8209 67.3985 21.4561 63.668 19.0119 57.4868C21.3424 56.35 23.8244 55.2571 26.411 54.225C27.0024 55.299 27.6978 56.3123 28.4871 57.2504ZM4.80471 56.4996C4.8832 56.4202 4.97674 56.3572 5.07986 56.3143C5.18299 56.2715 5.29362 56.2496 5.4053 56.25C6.45777 56.2488 7.4668 55.8302 8.21101 55.086C8.95522 54.3418 9.37384 53.3328 9.37503 52.2803V41.2305C9.37539 40.6556 9.60391 40.1044 10.0104 39.6979C10.4169 39.2914 10.9681 39.0629 11.543 39.0625C11.8369 39.0627 12.1277 39.1226 12.3977 39.2386C12.6678 39.3546 12.9114 39.5243 13.1138 39.7374C13.3162 39.9505 13.4732 40.2026 13.5752 40.4782C13.6771 40.7538 13.722 41.0473 13.7071 41.3409C13.4836 45.8805 13.7158 52.559 16.0912 58.5951C17.4594 62.0717 19.3946 64.9327 21.8426 67.0977C23.2367 68.3272 24.8058 69.3427 26.4985 70.111C22.9249 71.0356 19.2918 71.7126 15.625 72.1369L14.3198 71.8963C10.8299 71.3147 8.17952 69.1098 6.44202 65.3432C5.28206 62.7441 4.64293 59.9427 4.56077 57.0977C4.55968 56.9868 4.58069 56.8768 4.62257 56.7741C4.66445 56.6714 4.72637 56.5781 4.80471 56.4996ZM3.18616 70.4432C2.96995 69.8219 3.32776 68.8743 4.16116 67.7621C5.08355 69.5144 6.34403 71.0666 7.86975 72.3289C7.18278 72.2648 6.50098 72.1539 5.82913 71.9969C4.34924 71.6379 3.41096 71.0866 3.18674 70.444V70.443L3.18616 70.4432Z" fill="#00FFFF"/>
<path d="M14.0625 20.3125C13.1354 20.3125 12.2291 20.5874 11.4583 21.1025C10.6874 21.6176 10.0866 22.3496 9.73182 23.2062C9.37703 24.0627 9.2842 25.0052 9.46507 25.9145C9.64594 26.8238 10.0924 27.659 10.7479 28.3146C11.4035 28.9701 12.2387 29.4166 13.148 29.5974C14.0573 29.7783 14.9998 29.6855 15.8563 29.3307C16.7129 28.9759 17.4449 28.3751 17.96 27.6042C18.4751 26.8334 18.75 25.9271 18.75 25C18.7486 23.7572 18.2543 22.5658 17.3755 21.687C16.4967 20.8082 15.3053 20.3139 14.0625 20.3125ZM14.0625 26.5625C13.7535 26.5625 13.4514 26.4709 13.1944 26.2992C12.9375 26.1275 12.7372 25.8835 12.6189 25.5979C12.5007 25.3124 12.4697 24.9983 12.53 24.6952C12.5903 24.3921 12.7391 24.1137 12.9576 23.8951C13.1762 23.6766 13.4546 23.5278 13.7577 23.4675C14.0608 23.4072 14.3749 23.4382 14.6604 23.5564C14.946 23.6747 15.19 23.875 15.3617 24.1319C15.5334 24.3889 15.625 24.691 15.625 25C15.6245 25.4143 15.4598 25.8114 15.1668 26.1043C14.8739 26.3973 14.4768 26.562 14.0625 26.5625Z" fill="#00FFFF"/>
<path d="M29.6875 14.0625C29.6875 13.1354 29.4126 12.2291 28.8975 11.4583C28.3824 10.6874 27.6504 10.0866 26.7938 9.73182C25.9373 9.37703 24.9948 9.2842 24.0855 9.46507C23.1762 9.64594 22.341 10.0924 21.6854 10.7479C21.0299 11.4035 20.5834 12.2387 20.4026 13.148C20.2217 14.0573 20.3145 14.9998 20.6693 15.8563C21.0241 16.7129 21.6249 17.4449 22.3958 17.96C23.1666 18.4751 24.0729 18.75 25 18.75C26.2428 18.7486 27.4342 18.2543 28.313 17.3755C29.1918 16.4967 29.6861 15.3053 29.6875 14.0625ZM23.4375 14.0625C23.4375 13.7535 23.5291 13.4514 23.7008 13.1944C23.8725 12.9375 24.1165 12.7372 24.4021 12.6189C24.6876 12.5007 25.0017 12.4697 25.3048 12.53C25.6079 12.5903 25.8863 12.7391 26.1049 12.9576C26.3234 13.1762 26.4722 13.4546 26.5325 13.7577C26.5928 14.0608 26.5618 14.3749 26.4436 14.6604C26.3253 14.946 26.125 15.19 25.8681 15.3617C25.6111 15.5334 25.309 15.625 25 15.625C24.5857 15.6245 24.1886 15.4598 23.8957 15.1668C23.6027 14.8739 23.438 14.4768 23.4375 14.0625Z" fill="#00FFFF"/>
<path d="M20.3125 31.25H23.4375V34.375H20.3125V31.25Z" fill="#00FFFF"/>
<path d="M18.75 45.3125H21.875V48.4375H18.75V45.3125Z" fill="#00FFFF"/>
<path d="M28.125 59.375H31.25V62.5H28.125V59.375Z" fill="#00FFFF"/>
<path d="M3.125 29.6875H6.25V32.8125H3.125V29.6875Z" fill="#00FFFF"/>
<path d="M16.3209 71.6125L18.0543 69.0125C14.2355 66.4666 14.067 64.1211 14.0625 64.0225C14.0639 64.0488 14.0625 64.0625 14.0625 64.0625H10.9375C10.9375 64.468 11.0885 68.125 16.3209 71.6125Z" fill="#00FFFF"/>
<path d="M31.7361 24.1584C32.3816 23.182 33.1119 22.2644 33.9188 21.4164L31.7076 19.208C31.4977 19.4182 26.5625 24.4145 26.5625 29.6879H29.6875C29.6875 28.0945 30.3959 26.1824 31.7361 24.1584Z" fill="#00FFFF"/>
</g>
<defs>
<clipPath id="clip0">
<rect width="100" height="100" fill="white"/>
</clipPath>
</defs>
</svg>
