<svg width="105" height="35" viewBox="0 0 105 35" fill="none" xmlns="http://www.w3.org/2000/svg">
<g clip-path="url(#clip0)">
<g filter="url(#filter0_i)">
<path d="M-3.05176e-05 17.01C-3.05176e-05 17.3775 0.019657 17.6794 0.0590319 17.9156C0.0852819 18.1519 0.124657 18.3422 0.177157 18.4866C0.229657 18.6309 0.301843 18.736 0.393719 18.8016C0.485593 18.8672 0.590593 18.9066 0.708719 18.9197C1.20747 18.9853 1.63403 19.1822 1.9884 19.5103C2.34278 19.8253 2.63809 20.2256 2.87434 20.7113C3.09747 21.1837 3.26808 21.7153 3.38621 22.306C3.49121 22.8966 3.54371 23.6316 3.54371 24.511V27.0506C3.54371 28.5468 3.62903 29.7609 3.79966 30.6928C3.95716 31.6378 4.24589 32.4254 4.66589 33.0554C5.07279 33.6854 5.61747 34.1645 6.29997 34.4926C6.98247 34.8205 7.83557 34.9846 8.85934 34.9846C9.18747 34.9846 9.48934 34.965 9.76497 34.9255C10.0406 34.8995 10.3425 34.8536 10.6706 34.7878C10.7756 34.7614 10.874 34.7155 10.9659 34.65C11.0447 34.5845 11.1168 34.4859 11.1825 34.3546C11.2481 34.2236 11.3006 34.0463 11.34 33.8232C11.3793 33.6132 11.399 33.3374 11.399 32.9963C11.399 32.655 11.3793 32.3728 11.34 32.1496C11.3006 31.9264 11.2481 31.7428 11.1825 31.5986C11.1037 31.4541 11.0184 31.3491 10.9265 31.2836C10.8215 31.2309 10.7165 31.1982 10.6115 31.185H9.86339C9.53528 31.1718 9.2662 31.1063 9.0562 30.9882C8.83307 30.8832 8.65589 30.6863 8.52465 30.3974C8.38029 30.1218 8.28184 29.7413 8.22934 29.2555C8.16371 28.77 8.13089 28.0286 8.13089 27.031V24.57C8.13089 23.5725 8.05871 22.6866 7.91434 21.9122C7.76997 21.1378 7.54029 20.4225 7.22529 19.7663C6.91029 19.0969 6.49684 18.5194 5.98497 18.0337C5.45997 17.535 4.82339 17.2003 4.07529 17.0297C4.82339 16.8591 5.45997 16.6228 5.98497 16.3209C6.49684 16.0191 6.91029 15.645 7.22529 15.1987C7.54029 14.7525 7.76997 14.2341 7.91434 13.6434C8.05871 13.0528 8.13089 12.2522 8.13089 11.2416V7.95374C8.13089 6.95626 8.16371 6.22126 8.22934 5.74874C8.28184 5.26313 8.36715 4.87595 8.48528 4.58718C8.60339 4.29845 8.76089 4.10155 8.95778 3.99655C9.15465 3.87845 9.39747 3.81282 9.6862 3.79968L10.395 3.78C10.5918 3.78 10.7559 3.75374 10.8872 3.70126C11.0184 3.63563 11.1234 3.53718 11.2022 3.40595C11.2809 3.27468 11.3334 3.0975 11.3597 2.87437C11.3859 2.63813 11.399 2.34281 11.399 1.98844C11.399 1.66031 11.3859 1.38469 11.3597 1.16156C11.3203 0.925313 11.2678 0.741563 11.2022 0.610313C11.1234 0.479063 11.0381 0.380626 10.9462 0.315C10.8543 0.249375 10.7493 0.21 10.6312 0.196875C10.3293 0.118125 10.0406 0.065625 9.76497 0.039375C9.48934 0.013125 9.18747 0 8.85934 0C7.82247 0 6.96279 0.164063 6.28029 0.492187C5.59779 0.807187 5.05308 1.27969 4.64621 1.90969C4.23934 2.53969 3.95716 3.32718 3.79966 4.27218C3.62903 5.20405 3.54371 6.42468 3.54371 7.93405V11.3203C3.54371 12.1341 3.49121 12.7444 3.38621 13.1513C3.28121 13.545 3.12371 13.8731 2.91371 14.1356C2.69059 14.3981 2.40184 14.6081 2.04747 14.7656C1.69309 14.9231 1.26653 15.0478 0.767782 15.1397C0.649656 15.1528 0.544656 15.1987 0.452782 15.2775C0.347782 15.3431 0.269032 15.4481 0.216532 15.5925C0.150907 15.7369 0.0984069 15.9272 0.0590319 16.1635C0.019657 16.3866 -3.05176e-05 16.6687 -3.05176e-05 17.01Z" fill="#00FFFF"/>
<g filter="url(#filter1_i)">
<path fill-rule="evenodd" clip-rule="evenodd" d="M3.54305 24.3386L7.9683 22.2283C8.07672 22.9251 8.1309 23.7057 8.1309 24.57V27.031C8.1309 28.0286 8.16372 28.77 8.22935 29.2555C8.28185 29.7413 8.3803 30.1218 8.52466 30.3974C8.6559 30.6863 8.83308 30.8832 9.05622 30.9882C9.26622 31.1063 9.5353 31.1718 9.8634 31.185H10.6115C10.7165 31.1982 10.8215 31.2309 10.9265 31.2836C11.0184 31.3491 11.1037 31.4541 11.1825 31.5986C11.2481 31.7428 11.3006 31.9264 11.34 32.1496C11.3793 32.3728 11.399 32.655 11.399 32.9963C11.399 33.3374 11.3793 33.6132 11.34 33.8232C11.3006 34.0463 11.2481 34.2236 11.1825 34.3546C11.1168 34.4859 11.0447 34.5845 10.9659 34.65C10.874 34.7155 10.7756 34.7614 10.6706 34.7878C10.3425 34.8536 10.0406 34.8995 9.76498 34.9255C9.48935 34.965 9.18748 34.9846 8.85935 34.9846C7.83558 34.9846 6.98248 34.8205 6.29998 34.4926C5.61748 34.1645 5.0728 33.6854 4.6659 33.0554C4.2459 32.4254 3.95717 31.6378 3.79967 30.6928C3.62904 29.7609 3.54372 28.5468 3.54372 27.0506V24.511C3.54372 24.4529 3.5435 24.3954 3.54305 24.3386ZM0.0374146 16.3073L8.08786 12.4682C8.11656 12.1011 8.1309 11.6922 8.1309 11.2416V7.95374C8.1309 6.95626 8.16372 6.22126 8.22935 5.74874C8.28185 5.26313 8.36716 4.87595 8.4853 4.58718C8.6034 4.29845 8.7609 4.10155 8.9578 3.99655C9.15466 3.87845 9.39748 3.81282 9.68621 3.79968L10.395 3.78C10.5918 3.78 10.7559 3.75374 10.8872 3.70126C11.0184 3.63563 11.1234 3.53718 11.2022 3.40595C11.2809 3.27468 11.3334 3.0975 11.3597 2.87437C11.3859 2.63813 11.399 2.34281 11.399 1.98844C11.399 1.66031 11.3859 1.38469 11.3597 1.16156C11.3203 0.925313 11.2678 0.741563 11.2022 0.610313C11.1234 0.479063 11.0381 0.380626 10.9462 0.315C10.8543 0.249375 10.7493 0.21 10.6312 0.196875C10.3293 0.118125 10.0406 0.065625 9.76498 0.039375C9.48935 0.013125 9.18748 0 8.85935 0C7.82248 0 6.9628 0.164063 6.2803 0.492187C5.5978 0.807187 5.05309 1.27969 4.64622 1.90969C4.23935 2.53969 3.95717 3.32718 3.79967 4.27218C3.62904 5.20405 3.54372 6.42468 3.54372 7.93405V11.3203C3.54372 12.1341 3.49122 12.7444 3.38622 13.1513C3.28122 13.545 3.12372 13.8731 2.91372 14.1356C2.6906 14.3981 2.40185 14.6081 2.04748 14.7656C1.6931 14.9231 1.26654 15.0478 0.767791 15.1397C0.649665 15.1528 0.544665 15.1987 0.452791 15.2775C0.347791 15.3431 0.26904 15.4481 0.21654 15.5925C0.150916 15.7369 0.0984156 15.9272 0.0590406 16.1635C0.0510139 16.2089 0.043805 16.2569 0.0374146 16.3073Z" fill="#00FFFF"/>
</g>
<g filter="url(#filter2_i)">
<path fill-rule="evenodd" clip-rule="evenodd" d="M8.08784 12.4682L0.0374146 16.3072C0.043805 16.2568 0.0510144 16.2089 0.0590412 16.1634C0.0984161 15.9272 0.150916 15.7369 0.216541 15.5925C0.269041 15.4481 0.34779 15.3431 0.45279 15.2775C0.544666 15.1987 0.649666 15.1528 0.76779 15.1397C1.26654 15.0478 1.6931 14.9231 2.04748 14.7656C2.40185 14.6081 2.6906 14.3981 2.91373 14.1356C3.12373 13.8731 3.28123 13.545 3.38623 13.1512C3.49123 12.7444 3.54373 12.134 3.54373 11.3203V8.90472L8.12853 11.5518C8.12337 11.8817 8.10982 12.1872 8.08784 12.4682Z" fill="#6AFFFF"/>
</g>
<g filter="url(#filter3_i)">
<path fill-rule="evenodd" clip-rule="evenodd" d="M0.0590625 17.9157C0.0196875 17.6794 0 17.3775 0 17.01C0 16.7383 0.0124793 16.5041 0.037437 16.3073L8.08788 12.4682C8.05221 12.9244 7.99436 13.3162 7.91436 13.6435C7.76999 14.2341 7.54031 14.7525 7.22531 15.1988C6.91031 15.645 6.49686 16.0191 5.985 16.321C5.46 16.6228 4.82345 16.8591 4.07531 17.0297C4.82345 17.2003 5.46 17.535 5.985 18.0338C6.49686 18.5194 6.91031 19.0969 7.22531 19.7663C7.54031 20.4225 7.76999 21.1378 7.91436 21.9122C7.93601 22.0283 7.95605 22.147 7.97445 22.2681L3.54337 24.3812C3.53841 23.559 3.48603 22.8673 3.38623 22.306C3.26813 21.7153 3.0975 21.1838 2.87437 20.7113C2.63812 20.2257 2.34281 19.8253 1.98843 19.5103C1.63406 19.1822 1.2075 18.9853 0.708749 18.9197C0.590625 18.9066 0.485625 18.8672 0.393749 18.8016C0.301875 18.736 0.229687 18.631 0.177187 18.4866C0.124687 18.3422 0.0853124 18.1519 0.0590625 17.9157Z" fill="#00B4B4"/>
</g>
<g filter="url(#filter4_i)">
<path fill-rule="evenodd" clip-rule="evenodd" d="M0.0288086 17.6839C0.037103 17.7671 0.0471886 17.8443 0.0590651 17.9156C0.0853151 18.1518 0.12469 18.3422 0.17719 18.4865C0.22969 18.6309 0.301877 18.7359 0.393754 18.8015C0.485627 18.8672 0.590627 18.9065 0.708753 18.9197C1.2075 18.9853 1.63406 19.1822 1.98844 19.5103C2.34281 19.8253 2.63813 20.2256 2.87437 20.7112C3.0975 21.1837 3.26813 21.7153 3.38624 22.3059C3.48603 22.8672 3.53842 23.559 3.54337 24.3811L7.97445 22.2681C7.95606 22.1469 7.93601 22.0283 7.91436 21.9122C7.88141 21.7353 7.84397 21.5615 7.80208 21.3908L0.0288086 17.6839Z" fill="#00AFAF"/>
</g>
</g>
<g filter="url(#filter5_i)">
<path d="M43.039 17.01C43.039 17.3775 43.0194 17.6794 42.98 17.9156C42.9536 18.1519 42.9144 18.3422 42.8618 18.4866C42.8094 18.6309 42.7372 18.736 42.6454 18.8016C42.5535 18.8672 42.4485 18.9066 42.3304 18.9197C41.8314 18.9853 41.405 19.1822 41.0505 19.5103C40.6963 19.8253 40.4009 20.2256 40.1646 20.7113C39.9414 21.1837 39.7709 21.7153 39.6527 22.306C39.5477 22.8966 39.4954 23.6316 39.4954 24.511V27.0506C39.4954 28.5468 39.41 29.7609 39.2394 30.6928C39.0818 31.6378 38.7931 32.4254 38.3731 33.0554C37.9663 33.6854 37.4214 34.1645 36.7391 34.4926C36.0564 34.8205 35.2035 34.9846 34.1796 34.9846C33.8514 34.9846 33.5496 34.965 33.2741 34.9255C32.9985 34.8995 32.6964 34.8536 32.3685 34.7878C32.2635 34.7614 32.165 34.7155 32.0731 34.65C31.9945 34.5845 31.9222 34.4859 31.8564 34.3546C31.7909 34.2236 31.7385 34.0463 31.6991 33.8232C31.6596 33.6132 31.64 33.3374 31.64 32.9963C31.64 32.655 31.6596 32.3728 31.6991 32.1496C31.7385 31.9264 31.7909 31.7428 31.8564 31.5986C31.9354 31.4541 32.0205 31.3491 32.1123 31.2836C32.2173 31.2309 32.3223 31.1982 32.4273 31.185H33.1755C33.5037 31.1718 33.7727 31.1063 33.9827 30.9882C34.2059 30.8832 34.3831 30.6863 34.5145 30.3974C34.6587 30.1218 34.7572 29.7413 34.8096 29.2555C34.8754 28.77 34.9081 28.0286 34.9081 27.031V24.57C34.9081 23.5725 34.9804 22.6866 35.1246 21.9122C35.2691 21.1378 35.4987 20.4225 35.8137 19.7663C36.1287 19.0969 36.5422 18.5194 37.0541 18.0337C37.5791 17.535 38.2155 17.2003 38.9636 17.0297C38.2155 16.8591 37.5791 16.6228 37.0541 16.3209C36.5422 16.0191 36.1287 15.645 35.8137 15.1987C35.4987 14.7525 35.2691 14.2341 35.1246 13.6434C34.9804 13.0528 34.9081 12.2522 34.9081 11.2416V7.95374C34.9081 6.95626 34.8754 6.22126 34.8096 5.74874C34.7572 5.26313 34.6718 4.87595 34.5537 4.58718C34.4355 4.29845 34.2781 4.10155 34.0813 3.99655C33.8845 3.87845 33.6414 3.81282 33.3527 3.79968L32.6441 3.78C32.4472 3.78 32.2831 3.75374 32.1518 3.70126C32.0205 3.63563 31.9155 3.53718 31.8368 3.40595C31.7581 3.27468 31.7055 3.0975 31.6795 2.87437C31.6531 2.63813 31.64 2.34281 31.64 1.98844C31.64 1.66031 31.6531 1.38469 31.6795 1.16156C31.7187 0.925313 31.7713 0.741563 31.8368 0.610313C31.9155 0.479063 32.0009 0.380626 32.0927 0.315C32.1846 0.249375 32.2896 0.21 32.4077 0.196875C32.7096 0.118125 32.9985 0.065625 33.2741 0.039375C33.5496 0.013125 33.8514 0 34.1796 0C35.2164 0 36.0763 0.164063 36.7587 0.492187C37.4413 0.807187 37.9859 1.27969 38.3927 1.90969C38.7996 2.53969 39.0818 3.32718 39.2394 4.27218C39.41 5.20405 39.4954 6.42468 39.4954 7.93405V11.3203C39.4954 12.1341 39.5477 12.7444 39.6527 13.1513C39.7577 13.545 39.9154 13.8731 40.1254 14.1356C40.3485 14.3981 40.6372 14.6081 40.9914 14.7656C41.3459 14.9231 41.7723 15.0478 42.2713 15.1397C42.3894 15.1528 42.4944 15.1987 42.5863 15.2775C42.6913 15.3431 42.77 15.4481 42.8223 15.5925C42.8881 15.7369 42.9405 15.9272 42.98 16.1635C43.0194 16.3866 43.039 16.6687 43.039 17.01Z" fill="#00FFFF"/>
<g filter="url(#filter6_i)">
<path fill-rule="evenodd" clip-rule="evenodd" d="M39.4959 24.3386L35.0708 22.2283C34.9622 22.9251 34.9081 23.7057 34.9081 24.57V27.031C34.9081 28.0286 34.8754 28.77 34.8096 29.2555C34.7572 29.7413 34.6587 30.1218 34.5145 30.3974C34.3831 30.6863 34.2059 30.8832 33.9827 30.9882C33.7727 31.1063 33.5037 31.1718 33.1755 31.185H32.4273C32.3223 31.1982 32.2173 31.2309 32.1123 31.2836C32.0205 31.3491 31.9354 31.4541 31.8564 31.5986C31.7909 31.7428 31.7385 31.9264 31.6991 32.1496C31.6596 32.3728 31.64 32.655 31.64 32.9963C31.64 33.3374 31.6596 33.6132 31.6991 33.8232C31.7385 34.0463 31.7909 34.2236 31.8564 34.3546C31.9222 34.4859 31.9945 34.5845 32.0731 34.65C32.165 34.7155 32.2635 34.7614 32.3685 34.7878C32.6964 34.8536 32.9985 34.8995 33.2741 34.9255C33.5496 34.965 33.8514 34.9846 34.1796 34.9846C35.2035 34.9846 36.0564 34.8205 36.7391 34.4926C37.4214 34.1645 37.9663 33.6854 38.3731 33.0554C38.7931 32.4254 39.0818 31.6378 39.2395 30.6928C39.41 29.7609 39.4954 28.5468 39.4954 27.0506V24.511C39.4954 24.4529 39.4954 24.3954 39.4959 24.3386ZM43.0015 16.3073L34.9513 12.4682C34.9224 12.1011 34.9081 11.6922 34.9081 11.2416V7.95374C34.9081 6.95626 34.8754 6.22126 34.8096 5.74874C34.7572 5.26313 34.6718 4.87595 34.5537 4.58718C34.4355 4.29845 34.2781 4.10155 34.0813 3.99655C33.8845 3.87845 33.6414 3.81282 33.3527 3.79968L32.6441 3.78C32.4472 3.78 32.2831 3.75374 32.1518 3.70126C32.0205 3.63563 31.9155 3.53718 31.8368 3.40595C31.7581 3.27468 31.7055 3.0975 31.6795 2.87437C31.6531 2.63813 31.64 2.34281 31.64 1.98844C31.64 1.66031 31.6531 1.38469 31.6795 1.16156C31.7187 0.925313 31.7713 0.741563 31.8368 0.610313C31.9155 0.479063 32.0009 0.380626 32.0927 0.315C32.1846 0.249375 32.2896 0.21 32.4077 0.196875C32.7096 0.118125 32.9985 0.065625 33.2741 0.039375C33.5496 0.013125 33.8514 0 34.1796 0C35.2164 0 36.0763 0.164063 36.7587 0.492187C37.4413 0.807187 37.9859 1.27969 38.3927 1.90969C38.7996 2.53969 39.0818 3.32718 39.2395 4.27218C39.41 5.20405 39.4954 6.42468 39.4954 7.93405V11.3203C39.4954 12.1341 39.5477 12.7444 39.6527 13.1513C39.7577 13.545 39.9154 13.8731 40.1254 14.1356C40.3485 14.3981 40.6372 14.6081 40.9914 14.7656C41.3459 14.9231 41.7723 15.0478 42.2713 15.1397C42.3895 15.1528 42.4945 15.1987 42.5863 15.2775C42.6913 15.3431 42.77 15.4481 42.8223 15.5925C42.8881 15.7369 42.9405 15.9272 42.98 16.1635C42.9881 16.2089 42.9951 16.2569 43.0015 16.3073Z" fill="#00FFFF"/>
</g>
<g filter="url(#filter7_i)">
<path fill-rule="evenodd" clip-rule="evenodd" d="M34.9512 12.4682L43.0015 16.3072C42.9951 16.2568 42.9881 16.2089 42.98 16.1634C42.9405 15.9272 42.8881 15.7369 42.8223 15.5925C42.77 15.4481 42.6913 15.3431 42.5863 15.2775C42.4945 15.1987 42.3895 15.1528 42.2713 15.1397C41.7723 15.0478 41.3459 14.9231 40.9914 14.7656C40.6372 14.6081 40.3485 14.3981 40.1254 14.1356C39.9154 13.8731 39.7577 13.545 39.6527 13.1512C39.5477 12.7444 39.4954 12.134 39.4954 11.3203V8.90472L34.9104 11.5518C34.9157 11.8817 34.9291 12.1872 34.9512 12.4682Z" fill="#6AFFFF"/>
</g>
<g filter="url(#filter8_i)">
<path fill-rule="evenodd" clip-rule="evenodd" d="M42.98 17.9157C43.0195 17.6794 43.0391 17.3775 43.0391 17.01C43.0391 16.7383 43.0265 16.5041 43.0015 16.3073L34.9513 12.4682C34.9868 12.9244 35.0448 13.3162 35.1246 13.6435C35.2691 14.2341 35.4987 14.7525 35.8137 15.1988C36.1287 15.645 36.5422 16.0191 37.0541 16.321C37.5791 16.6228 38.2155 16.8591 38.9637 17.0297C38.2155 17.2003 37.5791 17.535 37.0541 18.0338C36.5422 18.5194 36.1287 19.0969 35.8137 19.7663C35.4987 20.4225 35.2691 21.1378 35.1246 21.9122C35.103 22.0283 35.0829 22.147 35.0647 22.2681L39.4957 24.3812C39.5007 23.559 39.5531 22.8673 39.6527 22.306C39.7709 21.7153 39.9414 21.1838 40.1646 20.7113C40.4009 20.2257 40.6963 19.8253 41.0505 19.5103C41.405 19.1822 41.8314 18.9853 42.3304 18.9197C42.4485 18.9066 42.5535 18.8672 42.6454 18.8016C42.7372 18.736 42.8095 18.631 42.8618 18.4866C42.9145 18.3422 42.9537 18.1519 42.98 17.9157Z" fill="#00B4B4"/>
</g>
<g filter="url(#filter9_i)">
<path fill-rule="evenodd" clip-rule="evenodd" d="M43.0102 17.6839C43.0018 17.7671 42.9917 17.8443 42.98 17.9156C42.9537 18.1518 42.9145 18.3422 42.8618 18.4865C42.8095 18.6309 42.7372 18.7359 42.6454 18.8015C42.5535 18.8672 42.4485 18.9065 42.3304 18.9197C41.8314 18.9853 41.405 19.1822 41.0505 19.5103C40.6963 19.8253 40.4009 20.2256 40.1646 20.7112C39.9414 21.1837 39.7709 21.7153 39.6527 22.3059C39.5531 22.8672 39.5007 23.559 39.4957 24.3811L35.0647 22.2681C35.0829 22.1469 35.103 22.0283 35.1246 21.9122C35.1576 21.7353 35.1951 21.5615 35.2369 21.3908L43.0102 17.6839Z" fill="#00AFAF"/>
</g>
</g>
<g filter="url(#filter10_i)">
<path fill-rule="evenodd" clip-rule="evenodd" d="M29.0413 29.1726C29.0805 28.91 29.1004 28.5885 29.1004 28.2077C29.1004 27.8272 29.0805 27.5122 29.0413 27.2628C29.015 27.0003 28.9691 26.7903 28.9036 26.6328C28.8378 26.4753 28.7524 26.3637 28.6474 26.2981C28.5555 26.2194 28.4505 26.18 28.3324 26.18H27.5038L24.5809 30.2355H28.3324C28.4505 30.2355 28.5555 30.2027 28.6474 30.1372C28.7524 30.0585 28.8378 29.9404 28.9036 29.7827C28.9691 29.6254 29.015 29.4218 29.0413 29.1726Z" fill="#6AFFFF"/>
</g>
<g filter="url(#filter11_i)">
<path fill-rule="evenodd" clip-rule="evenodd" d="M24.3572 26.18L29.0111 29.391C28.9847 29.5436 28.9486 29.6741 28.9035 29.7827C28.8377 29.9404 28.7523 30.0585 28.6473 30.1372C28.5555 30.2027 28.4505 30.2355 28.3323 30.2355H20.0614L22.8597 26.18H24.3572Z" fill="#19C9C9"/>
</g>
<g filter="url(#filter12_i)">
<path fill-rule="evenodd" clip-rule="evenodd" d="M19.1581 10.9408V13.3787L14 17.8603V8.03345L19.1581 10.9408Z" fill="#19C9C9"/>
</g>
<g filter="url(#filter13_i)">
<path fill-rule="evenodd" clip-rule="evenodd" d="M19.1581 20.4007V22.1443L14 21.28V13.4673L19.1581 20.4007ZM16.6712 30.2355L14 28.4166V24.7767L17.172 30.2355H16.6712Z" fill="#00AFAF"/>
</g>
<g filter="url(#filter14_i)">
<path fill-rule="evenodd" clip-rule="evenodd" d="M27.5038 26.18H24.3572L26.4587 27.63L27.5038 26.18ZM22.8597 26.18L20.0614 30.2355H15.5356C15.1025 30.2355 14.735 30.1109 14.4331 29.8614C14.1443 29.5991 14 29.1791 14 28.6014V28.4166L16.6712 30.2355H17.172L14 24.7767V21.28L19.1581 22.1443V26.18H22.8597ZM19.1581 20.4007V18.9941H26.8559C26.974 18.9941 27.079 18.9613 27.1709 18.8956C27.2759 18.83 27.3612 18.725 27.4268 18.5806C27.4925 18.4231 27.5384 18.2197 27.5646 17.9703C27.604 17.721 27.6237 17.406 27.6237 17.0253C27.6237 16.6578 27.604 16.3494 27.5646 16.1C27.5384 15.8375 27.4925 15.6341 27.4268 15.4897C27.3612 15.3322 27.2759 15.2206 27.1709 15.155C27.079 15.0763 26.974 15.0369 26.8559 15.0369H19.1581V13.3787L15.985 16.1356L19.1581 20.4007ZM19.1581 10.9408V8.81564H28.2536C28.3718 8.81564 28.4768 8.78282 28.5686 8.71719C28.6605 8.63846 28.7394 8.52032 28.805 8.36282C28.8705 8.20532 28.9164 8.00188 28.9427 7.75251C28.9822 7.49001 29.0018 7.17501 29.0018 6.80751C29.0018 6.41375 28.9822 6.09219 28.9427 5.84283C28.9164 5.58033 28.8705 5.37033 28.805 5.21283C28.7394 5.04219 28.6605 4.92406 28.5686 4.85846C28.4768 4.79283 28.3718 4.76001 28.2536 4.76001H15.5356C15.1025 4.76001 14.735 4.89127 14.4331 5.15375C14.1443 5.40314 14 5.81656 14 6.39406V8.03346L19.1581 10.9408Z" fill="#00FFFF"/>
</g>
<g filter="url(#filter15_di)">
<path d="M56.1573 26.0881C56.1573 26.3418 56.1444 26.5562 56.1181 26.7312C56.1005 26.8975 56.0699 27.0331 56.0263 27.1381C55.9826 27.2431 55.9255 27.3218 55.8555 27.3743C55.7944 27.4181 55.7244 27.44 55.6455 27.44H47.1144C46.8255 27.44 46.5805 27.3568 46.3794 27.1906C46.1868 27.0156 46.0905 26.7356 46.0905 26.3506V11.5456C46.0905 11.1606 46.1868 10.885 46.3794 10.7187C46.5805 10.5437 46.8255 10.4562 47.1144 10.4562H55.5931C55.6718 10.4562 55.7418 10.4781 55.8031 10.5218C55.8644 10.5656 55.9168 10.6443 55.9605 10.7581C56.0044 10.8631 56.035 11.0031 56.0526 11.1781C56.0786 11.3443 56.0918 11.5587 56.0918 11.8212C56.0918 12.0662 56.0786 12.2762 56.0526 12.4512C56.035 12.6175 56.0044 12.7531 55.9605 12.8581C55.9168 12.9631 55.8644 13.0418 55.8031 13.0943C55.7418 13.1381 55.6718 13.16 55.5931 13.16H49.5294V17.3075H54.6613C54.74 17.3075 54.81 17.3337 54.8713 17.3862C54.9413 17.43 54.9981 17.5043 55.0418 17.6093C55.0855 17.7056 55.1163 17.8412 55.1336 18.0162C55.16 18.1825 55.1731 18.3881 55.1731 18.6331C55.1731 18.8868 55.16 19.0968 55.1336 19.2631C55.1163 19.4293 55.0855 19.565 55.0418 19.67C54.9981 19.7662 54.9413 19.8362 54.8713 19.88C54.81 19.9237 54.74 19.9456 54.6613 19.9456H49.5294V24.7362H55.6455C55.7244 24.7362 55.7944 24.7625 55.8555 24.815C55.9255 24.8587 55.9826 24.9331 56.0263 25.0381C56.0699 25.1431 56.1005 25.2831 56.1181 25.4581C56.1444 25.6243 56.1573 25.8343 56.1573 26.0881ZM72.4454 13.0943C72.4454 13.3481 72.4326 13.5668 72.4062 13.7506C72.3886 13.9343 72.3581 14.0831 72.3144 14.1968C72.2794 14.3018 72.2312 14.3762 72.1699 14.42C72.1173 14.4637 72.0518 14.4856 71.9731 14.4856C71.8594 14.4856 71.6754 14.4068 71.4218 14.2493C71.1681 14.0918 70.8312 13.9212 70.4112 13.7375C69.9912 13.5537 69.4881 13.3831 68.9018 13.2256C68.3244 13.0681 67.6504 12.9893 66.8805 12.9893C66.0581 12.9893 65.3144 13.1337 64.6494 13.4225C63.9844 13.7025 63.4155 14.105 62.9431 14.63C62.4705 15.1462 62.1073 15.7718 61.8536 16.5068C61.5999 17.2331 61.4731 18.0381 61.4731 18.9218C61.4731 19.8931 61.5999 20.7506 61.8536 21.4943C62.1163 22.2293 62.4794 22.8462 62.9431 23.345C63.4068 23.8437 63.9626 24.22 64.6099 24.4737C65.2663 24.7275 65.9881 24.8543 66.7755 24.8543C67.1605 24.8543 67.5413 24.8106 67.9173 24.7231C68.2936 24.6356 68.6436 24.5043 68.9673 24.3293V20.3918H65.7518C65.5944 20.3918 65.4718 20.2956 65.3844 20.1031C65.2968 19.9018 65.2531 19.565 65.2531 19.0925C65.2531 18.8475 65.2618 18.6418 65.2794 18.4756C65.3055 18.3093 65.3405 18.1781 65.3844 18.0818C65.4281 17.9768 65.4805 17.9025 65.5418 17.8587C65.6031 17.8062 65.6731 17.78 65.7518 17.78H71.4873C71.6273 17.78 71.7499 17.8062 71.8549 17.8587C71.9686 17.9025 72.0649 17.9725 72.1436 18.0687C72.2312 18.165 72.2968 18.2831 72.3404 18.4231C72.3844 18.5543 72.4062 18.7075 72.4062 18.8825V25.6418C72.4062 25.9043 72.3581 26.1362 72.2618 26.3375C72.1744 26.53 71.9862 26.6831 71.6973 26.7968C71.4173 26.9106 71.0673 27.0287 70.6473 27.1512C70.2273 27.2737 69.7899 27.3787 69.3349 27.4662C68.8886 27.5537 68.4336 27.6193 67.9699 27.6631C67.5149 27.7068 67.0555 27.7287 66.5918 27.7287C65.2355 27.7287 64.0194 27.5362 62.9431 27.1512C61.8755 26.7575 60.9699 26.1931 60.2263 25.4581C59.4826 24.7143 58.9136 23.8131 58.5199 22.7543C58.1263 21.6868 57.9294 20.4793 57.9294 19.1318C57.9294 17.7406 58.1394 16.4937 58.5594 15.3912C58.9794 14.28 59.5744 13.3393 60.3444 12.5693C61.1144 11.7906 62.0418 11.1956 63.1268 10.7843C64.2205 10.3731 65.4368 10.1675 66.7755 10.1675C67.5105 10.1675 68.1799 10.22 68.7836 10.325C69.3873 10.4212 69.9126 10.5437 70.3586 10.6925C70.8136 10.8325 71.1899 10.9856 71.4873 11.1518C71.7849 11.3181 71.9904 11.4625 72.1044 11.585C72.2268 11.7075 72.3144 11.8825 72.3668 12.11C72.4194 12.3287 72.4454 12.6568 72.4454 13.0943ZM86.0299 26.0881C86.0299 26.3418 86.0167 26.5562 85.9904 26.7312C85.9731 26.8975 85.9425 27.0331 85.8986 27.1381C85.8549 27.2431 85.7981 27.3218 85.7281 27.3743C85.6667 27.4181 85.5967 27.44 85.5181 27.44H76.9868C76.6981 27.44 76.4531 27.3568 76.2518 27.1906C76.0594 27.0156 75.9631 26.7356 75.9631 26.3506V11.5456C75.9631 11.1606 76.0594 10.885 76.2518 10.7187C76.4531 10.5437 76.6981 10.4562 76.9868 10.4562H85.4654C85.5444 10.4562 85.6144 10.4781 85.6754 10.5218C85.7367 10.5656 85.7894 10.6443 85.8331 10.7581C85.8767 10.8631 85.9073 11.0031 85.9249 11.1781C85.9512 11.3443 85.9644 11.5587 85.9644 11.8212C85.9644 12.0662 85.9512 12.2762 85.9249 12.4512C85.9073 12.6175 85.8767 12.7531 85.8331 12.8581C85.7894 12.9631 85.7367 13.0418 85.6754 13.0943C85.6144 13.1381 85.5444 13.16 85.4654 13.16H79.4018V17.3075H84.5336C84.6125 17.3075 84.6825 17.3337 84.7436 17.3862C84.8136 17.43 84.8704 17.5043 84.9144 17.6093C84.9581 17.7056 84.9886 17.8412 85.0062 18.0162C85.0325 18.1825 85.0454 18.3881 85.0454 18.6331C85.0454 18.8868 85.0325 19.0968 85.0062 19.2631C84.9886 19.4293 84.9581 19.565 84.9144 19.67C84.8704 19.7662 84.8136 19.8362 84.7436 19.88C84.6825 19.9237 84.6125 19.9456 84.5336 19.9456H79.4018V24.7362H85.5181C85.5967 24.7362 85.6667 24.7625 85.7281 24.815C85.7981 24.8587 85.8549 24.9331 85.8986 25.0381C85.9425 25.1431 85.9731 25.2831 85.9904 25.4581C86.0167 25.6243 86.0299 25.8343 86.0299 26.0881ZM102.659 26.1537C102.764 26.4687 102.83 26.7181 102.856 26.9018C102.883 27.0856 102.847 27.2256 102.751 27.3218C102.655 27.4093 102.484 27.4618 102.239 27.4793C101.994 27.5056 101.657 27.5187 101.229 27.5187C100.783 27.5187 100.433 27.51 100.179 27.4925C99.9336 27.4837 99.7454 27.4618 99.6144 27.4268C99.483 27.3831 99.3912 27.3262 99.3386 27.2562C99.2862 27.1862 99.2425 27.0943 99.2072 26.9806L98.0654 23.5681H91.6867L90.6104 26.8887C90.5754 27.0112 90.5273 27.1162 90.4662 27.2037C90.4136 27.2825 90.3217 27.3481 90.1904 27.4006C90.0681 27.4443 89.8886 27.475 89.6525 27.4925C89.4249 27.51 89.1231 27.5187 88.7467 27.5187C88.3444 27.5187 88.0294 27.5056 87.8017 27.4793C87.5744 27.4531 87.4167 27.3918 87.3294 27.2956C87.2417 27.1906 87.2112 27.0462 87.2373 26.8625C87.2636 26.6787 87.3294 26.4337 87.4344 26.1275L92.6712 11.06C92.7236 10.9112 92.7849 10.7931 92.8549 10.7056C92.9249 10.6093 93.0344 10.5393 93.1831 10.4956C93.3404 10.4431 93.5549 10.4125 93.8262 10.4037C94.0972 10.3862 94.4562 10.3775 94.9025 10.3775C95.4186 10.3775 95.8299 10.3862 96.1362 10.4037C96.4425 10.4125 96.6786 10.4431 96.8449 10.4956C97.0199 10.5393 97.1425 10.6093 97.2125 10.7056C97.2912 10.8018 97.3567 10.9331 97.4094 11.0993L102.659 26.1537ZM94.863 13.6981H94.8499L92.4481 20.9168H97.2649L94.863 13.6981Z" fill="#00FFFF"/>
</g>
</g>
<defs>
<filter id="filter0_i" x="-3.05176e-05" y="0" width="11.3991" height="38.9846" filterUnits="userSpaceOnUse" color-interpolation-filters="sRGB">
<feFlood flood-opacity="0" result="BackgroundImageFix"/>
<feBlend mode="normal" in="SourceGraphic" in2="BackgroundImageFix" result="shape"/>
<feColorMatrix in="SourceAlpha" type="matrix" values="0 0 0 0 0 0 0 0 0 0 0 0 0 0 0 0 0 0 127 0" result="hardAlpha"/>
<feOffset dy="4"/>
<feGaussianBlur stdDeviation="4"/>
<feComposite in2="hardAlpha" operator="arithmetic" k2="-1" k3="1"/>
<feColorMatrix type="matrix" values="0 0 0 0 0 0 0 0 0 0 0 0 0 0 0 0 0 0 0.5 0"/>
<feBlend mode="normal" in2="shape" result="effect1_innerShadow"/>
</filter>
<filter id="filter1_i" x="0.0374146" y="0" width="11.3616" height="38.9846" filterUnits="userSpaceOnUse" color-interpolation-filters="sRGB">
<feFlood flood-opacity="0" result="BackgroundImageFix"/>
<feBlend mode="normal" in="SourceGraphic" in2="BackgroundImageFix" result="shape"/>
<feColorMatrix in="SourceAlpha" type="matrix" values="0 0 0 0 0 0 0 0 0 0 0 0 0 0 0 0 0 0 127 0" result="hardAlpha"/>
<feOffset dy="4"/>
<feGaussianBlur stdDeviation="4"/>
<feComposite in2="hardAlpha" operator="arithmetic" k2="-1" k3="1"/>
<feColorMatrix type="matrix" values="0 0 0 0 0 0 0 0 0 0 0 0 0 0 0 0 0 0 0.25 0"/>
<feBlend mode="normal" in2="shape" result="effect1_innerShadow"/>
</filter>
<filter id="filter2_i" x="0.0374146" y="8.90472" width="8.09111" height="10.4025" filterUnits="userSpaceOnUse" color-interpolation-filters="sRGB">
<feFlood flood-opacity="0" result="BackgroundImageFix"/>
<feBlend mode="normal" in="SourceGraphic" in2="BackgroundImageFix" result="shape"/>
<feColorMatrix in="SourceAlpha" type="matrix" values="0 0 0 0 0 0 0 0 0 0 0 0 0 0 0 0 0 0 127 0" result="hardAlpha"/>
<feOffset dy="3"/>
<feGaussianBlur stdDeviation="2"/>
<feComposite in2="hardAlpha" operator="arithmetic" k2="-1" k3="1"/>
<feColorMatrix type="matrix" values="0 0 0 0 0 0 0 0 0 0 0 0 0 0 0 0 0 0 0.5 0"/>
<feBlend mode="normal" in2="shape" result="effect1_innerShadow"/>
</filter>
<filter id="filter3_i" x="0" y="12.4682" width="8.08788" height="14.913" filterUnits="userSpaceOnUse" color-interpolation-filters="sRGB">
<feFlood flood-opacity="0" result="BackgroundImageFix"/>
<feBlend mode="normal" in="SourceGraphic" in2="BackgroundImageFix" result="shape"/>
<feColorMatrix in="SourceAlpha" type="matrix" values="0 0 0 0 0 0 0 0 0 0 0 0 0 0 0 0 0 0 127 0" result="hardAlpha"/>
<feOffset dy="3"/>
<feGaussianBlur stdDeviation="2"/>
<feComposite in2="hardAlpha" operator="arithmetic" k2="-1" k3="1"/>
<feColorMatrix type="matrix" values="0 0 0 0 0 0 0 0 0 0 0 0 0 0 0 0 0 0 0.25 0"/>
<feBlend mode="normal" in2="shape" result="effect1_innerShadow"/>
</filter>
<filter id="filter4_i" x="0.0288086" y="17.6839" width="7.94564" height="9.69724" filterUnits="userSpaceOnUse" color-interpolation-filters="sRGB">
<feFlood flood-opacity="0" result="BackgroundImageFix"/>
<feBlend mode="normal" in="SourceGraphic" in2="BackgroundImageFix" result="shape"/>
<feColorMatrix in="SourceAlpha" type="matrix" values="0 0 0 0 0 0 0 0 0 0 0 0 0 0 0 0 0 0 127 0" result="hardAlpha"/>
<feOffset dy="3"/>
<feGaussianBlur stdDeviation="2"/>
<feComposite in2="hardAlpha" operator="arithmetic" k2="-1" k3="1"/>
<feColorMatrix type="matrix" values="0 0 0 0 0 0 0 0 0 0 0 0 0 0 0 0 0 0 0.25 0"/>
<feBlend mode="normal" in2="shape" result="effect1_innerShadow"/>
</filter>
<filter id="filter5_i" x="31.64" y="0" width="11.3991" height="38.9846" filterUnits="userSpaceOnUse" color-interpolation-filters="sRGB">
<feFlood flood-opacity="0" result="BackgroundImageFix"/>
<feBlend mode="normal" in="SourceGraphic" in2="BackgroundImageFix" result="shape"/>
<feColorMatrix in="SourceAlpha" type="matrix" values="0 0 0 0 0 0 0 0 0 0 0 0 0 0 0 0 0 0 127 0" result="hardAlpha"/>
<feOffset dy="4"/>
<feGaussianBlur stdDeviation="4"/>
<feComposite in2="hardAlpha" operator="arithmetic" k2="-1" k3="1"/>
<feColorMatrix type="matrix" values="0 0 0 0 0 0 0 0 0 0 0 0 0 0 0 0 0 0 0.5 0"/>
<feBlend mode="normal" in2="shape" result="effect1_innerShadow"/>
</filter>
<filter id="filter6_i" x="31.64" y="0" width="11.3616" height="38.9846" filterUnits="userSpaceOnUse" color-interpolation-filters="sRGB">
<feFlood flood-opacity="0" result="BackgroundImageFix"/>
<feBlend mode="normal" in="SourceGraphic" in2="BackgroundImageFix" result="shape"/>
<feColorMatrix in="SourceAlpha" type="matrix" values="0 0 0 0 0 0 0 0 0 0 0 0 0 0 0 0 0 0 127 0" result="hardAlpha"/>
<feOffset dy="4"/>
<feGaussianBlur stdDeviation="4"/>
<feComposite in2="hardAlpha" operator="arithmetic" k2="-1" k3="1"/>
<feColorMatrix type="matrix" values="0 0 0 0 0 0 0 0 0 0 0 0 0 0 0 0 0 0 0.25 0"/>
<feBlend mode="normal" in2="shape" result="effect1_innerShadow"/>
</filter>
<filter id="filter7_i" x="34.9104" y="8.90472" width="8.09118" height="10.4025" filterUnits="userSpaceOnUse" color-interpolation-filters="sRGB">
<feFlood flood-opacity="0" result="BackgroundImageFix"/>
<feBlend mode="normal" in="SourceGraphic" in2="BackgroundImageFix" result="shape"/>
<feColorMatrix in="SourceAlpha" type="matrix" values="0 0 0 0 0 0 0 0 0 0 0 0 0 0 0 0 0 0 127 0" result="hardAlpha"/>
<feOffset dy="3"/>
<feGaussianBlur stdDeviation="2"/>
<feComposite in2="hardAlpha" operator="arithmetic" k2="-1" k3="1"/>
<feColorMatrix type="matrix" values="0 0 0 0 0 0 0 0 0 0 0 0 0 0 0 0 0 0 0.5 0"/>
<feBlend mode="normal" in2="shape" result="effect1_innerShadow"/>
</filter>
<filter id="filter8_i" x="34.9513" y="12.4682" width="8.0878" height="14.913" filterUnits="userSpaceOnUse" color-interpolation-filters="sRGB">
<feFlood flood-opacity="0" result="BackgroundImageFix"/>
<feBlend mode="normal" in="SourceGraphic" in2="BackgroundImageFix" result="shape"/>
<feColorMatrix in="SourceAlpha" type="matrix" values="0 0 0 0 0 0 0 0 0 0 0 0 0 0 0 0 0 0 127 0" result="hardAlpha"/>
<feOffset dy="3"/>
<feGaussianBlur stdDeviation="2"/>
<feComposite in2="hardAlpha" operator="arithmetic" k2="-1" k3="1"/>
<feColorMatrix type="matrix" values="0 0 0 0 0 0 0 0 0 0 0 0 0 0 0 0 0 0 0.25 0"/>
<feBlend mode="normal" in2="shape" result="effect1_innerShadow"/>
</filter>
<filter id="filter9_i" x="35.0647" y="17.6839" width="7.94555" height="9.69724" filterUnits="userSpaceOnUse" color-interpolation-filters="sRGB">
<feFlood flood-opacity="0" result="BackgroundImageFix"/>
<feBlend mode="normal" in="SourceGraphic" in2="BackgroundImageFix" result="shape"/>
<feColorMatrix in="SourceAlpha" type="matrix" values="0 0 0 0 0 0 0 0 0 0 0 0 0 0 0 0 0 0 127 0" result="hardAlpha"/>
<feOffset dy="3"/>
<feGaussianBlur stdDeviation="2"/>
<feComposite in2="hardAlpha" operator="arithmetic" k2="-1" k3="1"/>
<feColorMatrix type="matrix" values="0 0 0 0 0 0 0 0 0 0 0 0 0 0 0 0 0 0 0.25 0"/>
<feBlend mode="normal" in2="shape" result="effect1_innerShadow"/>
</filter>
<filter id="filter10_i" x="24.5809" y="26.18" width="4.51953" height="7.05551" filterUnits="userSpaceOnUse" color-interpolation-filters="sRGB">
<feFlood flood-opacity="0" result="BackgroundImageFix"/>
<feBlend mode="normal" in="SourceGraphic" in2="BackgroundImageFix" result="shape"/>
<feColorMatrix in="SourceAlpha" type="matrix" values="0 0 0 0 0 0 0 0 0 0 0 0 0 0 0 0 0 0 127 0" result="hardAlpha"/>
<feOffset dy="3"/>
<feGaussianBlur stdDeviation="2"/>
<feComposite in2="hardAlpha" operator="arithmetic" k2="-1" k3="1"/>
<feColorMatrix type="matrix" values="0 0 0 0 0 0 0 0 0 0 0 0 0 0 0 0 0 0 0.25 0"/>
<feBlend mode="normal" in2="shape" result="effect1_innerShadow"/>
</filter>
<filter id="filter11_i" x="20.0614" y="26.18" width="8.94963" height="7.05551" filterUnits="userSpaceOnUse" color-interpolation-filters="sRGB">
<feFlood flood-opacity="0" result="BackgroundImageFix"/>
<feBlend mode="normal" in="SourceGraphic" in2="BackgroundImageFix" result="shape"/>
<feColorMatrix in="SourceAlpha" type="matrix" values="0 0 0 0 0 0 0 0 0 0 0 0 0 0 0 0 0 0 127 0" result="hardAlpha"/>
<feOffset dy="3"/>
<feGaussianBlur stdDeviation="2"/>
<feComposite in2="hardAlpha" operator="arithmetic" k2="-1" k3="1"/>
<feColorMatrix type="matrix" values="0 0 0 0 0 0 0 0 0 0 0 0 0 0 0 0 0 0 0.25 0"/>
<feBlend mode="normal" in2="shape" result="effect1_innerShadow"/>
</filter>
<filter id="filter12_i" x="14" y="8.03345" width="5.15811" height="12.8269" filterUnits="userSpaceOnUse" color-interpolation-filters="sRGB">
<feFlood flood-opacity="0" result="BackgroundImageFix"/>
<feBlend mode="normal" in="SourceGraphic" in2="BackgroundImageFix" result="shape"/>
<feColorMatrix in="SourceAlpha" type="matrix" values="0 0 0 0 0 0 0 0 0 0 0 0 0 0 0 0 0 0 127 0" result="hardAlpha"/>
<feOffset dy="3"/>
<feGaussianBlur stdDeviation="2"/>
<feComposite in2="hardAlpha" operator="arithmetic" k2="-1" k3="1"/>
<feColorMatrix type="matrix" values="0 0 0 0 0 0 0 0 0 0 0 0 0 0 0 0 0 0 0.25 0"/>
<feBlend mode="normal" in2="shape" result="effect1_innerShadow"/>
</filter>
<filter id="filter13_i" x="14" y="13.4673" width="5.15811" height="19.7682" filterUnits="userSpaceOnUse" color-interpolation-filters="sRGB">
<feFlood flood-opacity="0" result="BackgroundImageFix"/>
<feBlend mode="normal" in="SourceGraphic" in2="BackgroundImageFix" result="shape"/>
<feColorMatrix in="SourceAlpha" type="matrix" values="0 0 0 0 0 0 0 0 0 0 0 0 0 0 0 0 0 0 127 0" result="hardAlpha"/>
<feOffset dy="3"/>
<feGaussianBlur stdDeviation="2"/>
<feComposite in2="hardAlpha" operator="arithmetic" k2="-1" k3="1"/>
<feColorMatrix type="matrix" values="0 0 0 0 0 0 0 0 0 0 0 0 0 0 0 0 0 0 0.25 0"/>
<feBlend mode="normal" in2="shape" result="effect1_innerShadow"/>
</filter>
<filter id="filter14_i" x="14" y="4.76001" width="15.0018" height="28.4755" filterUnits="userSpaceOnUse" color-interpolation-filters="sRGB">
<feFlood flood-opacity="0" result="BackgroundImageFix"/>
<feBlend mode="normal" in="SourceGraphic" in2="BackgroundImageFix" result="shape"/>
<feColorMatrix in="SourceAlpha" type="matrix" values="0 0 0 0 0 0 0 0 0 0 0 0 0 0 0 0 0 0 127 0" result="hardAlpha"/>
<feOffset dy="3"/>
<feGaussianBlur stdDeviation="3.5"/>
<feComposite in2="hardAlpha" operator="arithmetic" k2="-1" k3="1"/>
<feColorMatrix type="matrix" values="0 0 0 0 0 0 0 0 0 0 0 0 0 0 0 0 0 0 0.5 0"/>
<feBlend mode="normal" in2="shape" result="effect1_innerShadow"/>
</filter>
<filter id="filter15_di" x="40.0905" y="8.16748" width="68.7742" height="29.5612" filterUnits="userSpaceOnUse" color-interpolation-filters="sRGB">
<feFlood flood-opacity="0" result="BackgroundImageFix"/>
<feColorMatrix in="SourceAlpha" type="matrix" values="0 0 0 0 0 0 0 0 0 0 0 0 0 0 0 0 0 0 127 0"/>
<feOffset dy="4"/>
<feGaussianBlur stdDeviation="3"/>
<feColorMatrix type="matrix" values="0 0 0 0 0 0 0 0 0 0 0 0 0 0 0 0 0 0 0.5 0"/>
<feBlend mode="normal" in2="BackgroundImageFix" result="effect1_dropShadow"/>
<feBlend mode="normal" in="SourceGraphic" in2="effect1_dropShadow" result="shape"/>
<feColorMatrix in="SourceAlpha" type="matrix" values="0 0 0 0 0 0 0 0 0 0 0 0 0 0 0 0 0 0 127 0" result="hardAlpha"/>
<feOffset dy="3"/>
<feGaussianBlur stdDeviation="4.5"/>
<feComposite in2="hardAlpha" operator="arithmetic" k2="-1" k3="1"/>
<feColorMatrix type="matrix" values="0 0 0 0 0 0 0 0 0 0 0 0 0 0 0 0 0 0 0.4 0"/>
<feBlend mode="normal" in2="shape" result="effect2_innerShadow"/>
</filter>
<clipPath id="clip0">
<rect width="104.72" height="35" fill="white"/>
</clipPath>
</defs>
</svg>
